<svg width="835.0000000000001" height="650" xmlns="http://www.w3.org/2000/svg" version="1.1" xml:space="preserve">
 <title>garotosSized</title>
 <g>
  <title>Layer 1</title>
  <path class="st133" d="m1554.40002,1078.77002l-1544.40002,0c-5.52,0 -10,-4.47998 -10,-10l0,-1058.77002c0,-5.52 4.48,-10 10,-10l1544.40002,0c5.52002,0 10,4.48 10,10l0,1058.77002c0,5.53003 -4.47998,10 -10,10z" fill="none" id="svg_1"/>
  <g id="svg_2">
   <g id="svg_3">
    <g id="svg_4">
     <path class="st134" d="m775.73999,169.16c-80.87,-25.59 -216.72998,-43.61 -316.91,-51.95l0.55002,-6.63c100.53998,8.37 236.96997,26.48 318.35999,52.24001l-2,6.34z" fill="#E1A341" id="svg_5"/>
    </g>
    <g id="svg_6">
     <path class="st134" d="m58.08,166.71001l-1.97,-6.36c94.17,-29.09 226.43999,-45.58001 318.82002,-51.31l0.40994,6.64c-91.98999,5.70999 -223.64998,22.10999 -317.25996,51.03z" fill="#E1A341" id="svg_7"/>
    </g>
   </g>
   <g id="svg_8">
    <path class="st134" d="m333.87,335.57999l6.95999,0c1.66,0 3.13,0.32001 4.41,0.95001c1.28,0.63 2.26999,1.53 2.97,2.67999c0.71002,1.14999 1.06,2.48999 1.06,4.03c0,1.53 -0.35001,2.87 -1.06,4.01999c-0.70999,1.15002 -1.70001,2.05002 -2.97,2.68002c-1.28,0.62997 -2.73999,0.94998 -4.41,0.94998l-6.95999,0l0,-15.31zm6.78,12.40002c1.53,0 2.75,-0.42999 3.66,-1.28c0.91,-0.85001 1.37,-2.01001 1.37,-3.47s-0.45999,-2.61002 -1.37,-3.47c-0.91,-0.85001 -2.13,-1.28 -3.66,-1.28l-3.23999,0l0,9.48999l3.23999,0l0,0.01001z" fill="#E1A341" id="svg_9"/>
    <path class="st134" d="m367.31,348.04999l0,2.84l-11.85999,0l0,-15.31l11.56998,0l0,2.84l-8.04999,0l0,3.32001l7.10999,0l0,2.76001l-7.10999,0l0,3.53998l8.34,0l0,0.01001z" fill="#E1A341" id="svg_10"/>
    <path class="st134" d="m375.17999,350.66c-1.13,-0.33002 -2.04001,-0.76001 -2.72,-1.28l1.20001,-2.67001c0.65997,0.48001 1.43997,0.87 2.34,1.16c0.89999,0.29001 1.81,0.44 2.70999,0.44c1.01001,0 1.75,-0.14999 2.23001,-0.45001c0.47998,-0.29999 0.72,-0.69998 0.72,-1.18997c0,-0.36002 -0.14001,-0.67001 -0.43002,-0.91c-0.28,-0.24002 -0.64999,-0.43002 -1.09,-0.58002c-0.44,-0.14999 -1.04999,-0.31 -1.79999,-0.47998c-1.17001,-0.28 -2.12,-0.55002 -2.87,-0.83002c-0.74002,-0.28 -1.38,-0.72 -1.91,-1.32999c-0.53,-0.61002 -0.80002,-1.43002 -0.80002,-2.45001c0,-0.88998 0.24002,-1.69 0.72,-2.41998c0.48001,-0.72 1.21002,-1.29001 2.18002,-1.72c0.97,-0.42001 2.14996,-0.63 3.54999,-0.63c0.98001,0 1.92999,0.12 2.87,0.35001c0.92999,0.22998 1.75,0.56998 2.45001,1.00998l-1.09,2.69c-1.41,-0.79999 -2.83005,-1.19998 -4.24002,-1.19998c-0.98999,0 -1.72,0.15997 -2.19998,0.47998c-0.47,0.32001 -0.71002,0.74002 -0.71002,1.27002c0,0.51999 0.27002,0.90997 0.82001,1.16998s1.38,0.51001 2.5,0.75c1.17001,0.28 2.12,0.55002 2.87,0.83002c0.74002,0.28 1.38,0.72 1.91,1.31c0.53,0.59998 0.80002,1.41 0.80002,2.42999c0,0.87 -0.24002,1.66998 -0.73001,2.39999s-1.22,1.29001 -2.20001,1.72c-0.97998,0.42001 -2.16998,0.63 -3.56998,0.63c-1.20999,-0.01001 -2.38,-0.17001 -3.51001,-0.5z" fill="#E1A341" id="svg_11"/>
    <path class="st134" d="m391.13,335.57999l6.95999,0c1.66,0 3.13,0.32001 4.41,0.95001s2.26999,1.53 2.97,2.67999c0.70999,1.14999 1.06,2.48999 1.06,4.03c0,1.53 -0.35001,2.87 -1.06,4.01999c-0.70999,1.15002 -1.70001,2.05002 -2.97,2.68002s-2.75,0.94998 -4.41,0.94998l-6.95999,0l0,-15.31zm6.78,12.40002c1.53,0 2.75,-0.42999 3.66,-1.28c0.91,-0.85001 1.37,-2.01001 1.37,-3.47s-0.45999,-2.61002 -1.37,-3.47c-0.91,-0.85001 -2.13,-1.28 -3.66,-1.28l-3.23999,0l0,9.48999l3.23999,0l0,0.01001z" fill="#E1A341" id="svg_12"/>
    <path class="st134" d="m424.57999,348.04999l0,2.84l-11.85999,0l0,-15.31l11.56998,0l0,2.84l-8.04999,0l0,3.32001l7.10999,0l0,2.76001l-7.10999,0l0,3.53998l8.34,0l0,0.01001z" fill="#E1A341" id="svg_13"/>
    <path class="st134" d="m451.10999,348l0,2.89001l-11.57001,0l0,-2.30002l5.91,-5.57999c0.63,-0.60001 1.05002,-1.11002 1.27002,-1.54001c0.22,-0.42999 0.32999,-0.86005 0.32999,-1.28c0,-0.61005 -0.20999,-1.08005 -0.62,-1.41c-0.42001,-0.32999 -1.01999,-0.48999 -1.83005,-0.48999c-0.66995,0 -1.27997,0.13 -1.80997,0.38c-0.53998,0.25998 -0.98999,0.63995 -1.35999,1.14996l-2.58005,-1.65997c0.60004,-0.89001 1.42001,-1.59003 2.47,-2.09003c1.05005,-0.5 2.25,-0.76001 3.61005,-0.76001c1.13995,0 2.12997,0.19 2.98999,0.56003c0.85001,0.37 1.52002,0.89996 1.99002,1.57001c0.47,0.67999 0.70999,1.48001 0.70999,2.39996c0,0.83005 -0.17001,1.61005 -0.52005,2.34003c-0.34998,0.73001 -1.03,1.56 -2.03,2.49002l-3.51999,3.31998l6.56,0l0,0.01001l0.00003,0z" fill="#E1A341" id="svg_14"/>
    <path class="st134" d="m459.23001,350.20999c-0.98999,-0.63 -1.76999,-1.53 -2.32999,-2.72c-0.56003,-1.19 -0.84003,-2.60999 -0.84003,-4.25c0,-1.64999 0.28,-3.07001 0.84003,-4.25c0.56,-1.19 1.34,-2.10001 2.32999,-2.72c0.98999,-0.63 2.12,-0.94 3.38998,-0.94c1.27002,0 2.40002,0.31 3.39001,0.94c0.98999,0.63 1.76999,1.53 2.32999,2.72c0.56003,1.19 0.84003,2.60999 0.84003,4.25c0,1.64999 -0.28,3.07001 -0.84003,4.25c-0.56,1.19 -1.34,2.10001 -2.32999,2.72c-0.98999,0.63 -2.12,0.94 -3.39001,0.94c-1.26999,0 -2.39999,-0.31 -3.38998,-0.94zm5.57999,-3.25998c0.53,-0.79999 0.79999,-2.04001 0.79999,-3.72c0,-1.67999 -0.26999,-2.92001 -0.79999,-3.72c-0.53,-0.79999 -1.26001,-1.20001 -2.20001,-1.20001c-0.91998,0 -1.63998,0.40002 -2.17999,1.20001c-0.53,0.79999 -0.79999,2.04001 -0.79999,3.72c0,1.67999 0.26999,2.92001 0.79999,3.72c0.53,0.79999 1.26001,1.20001 2.17999,1.20001c0.94,0.00998 1.67001,-0.40002 2.20001,-1.20001z" fill="#E1A341" id="svg_15"/>
    <path class="st134" d="m485.73999,348l0,2.89001l-11.57001,0l0,-2.30002l5.91,-5.57999c0.63,-0.60001 1.05002,-1.11002 1.26999,-1.54001c0.22,-0.42999 0.33002,-0.86005 0.33002,-1.28c0,-0.61005 -0.20999,-1.08005 -0.62,-1.41c-0.42001,-0.32999 -1.02002,-0.48999 -1.83002,-0.48999c-0.66998,0 -1.28,0.13 -1.81998,0.38c-0.54001,0.25998 -0.99002,0.63995 -1.36005,1.14996l-2.57999,-1.65997c0.59998,-0.89001 1.41998,-1.59003 2.47,-2.09003c1.04999,-0.5 2.25,-0.76001 3.60999,-0.76001c1.14001,0 2.13,0.19 2.98999,0.56003c0.85004,0.37 1.52002,0.89996 1.99002,1.57001c0.47,0.67999 0.70999,1.48001 0.70999,2.39996c0,0.83005 -0.17999,1.61005 -0.53,2.34003c-0.35001,0.73001 -1.03,1.56 -2.03,2.49002l-3.51999,3.31998l6.57999,0l0,0.01001l0.00003,0z" fill="#E1A341" id="svg_16"/>
    <path class="st134" d="m496.63,335.57999l0,15.31l-3.54001,0l0,-12.47l-3.06,0l0,-2.84l6.60001,0z" fill="#E1A341" id="svg_17"/>
   </g>
   <g id="svg_18">
    <path class="st134" d="m757.17999,304.53c-222.53998,-73.37 -457.79001,-73.37 -680.33001,0l-2.08,-6.32001c110.69997,-36.5 225.85001,-55.00999 342.25001,-55.00999s231.55002,18.50999 342.24997,55.00999l-2.08997,6.32001z" fill="#E1A341" id="svg_19"/>
   </g>
   <g id="svg_20">
    <g id="svg_21">
     <rect x="382.89" y="89.54" transform="matrix(0.9999 0.0142 -0.0142 0.9999 1.6319 -5.9122)" class="st135" width="68.24" height="44.76" fill="#06993B" id="svg_22"/>
    </g>
    <g id="svg_23">
     <polygon class="st136" points="388.5,111.52 417.25,95.06 445.34,112.32 416.77,129.01    " fill="#FCDD01" id="svg_24"/>
    </g>
    <g id="svg_25">
     <path class="st137" d="m428.82999,112.09c-0.09,6.12 -5.44998,11 -11.98001,10.91c-6.53,-0.09 -11.75,-5.13 -11.66998,-11.25c0.09,-6.12 5.45001,-11 11.98001,-10.91c6.54001,0.10001 11.76001,5.13 11.66998,11.25z" fill="#002776" id="svg_26"/>
    </g>
    <g id="svg_27">
     <path class="st13" d="m405.60001,108.99c0,0 5.83002,-1.25 11.5,0.45c5.87,1.73 11.17001,5.92 11.17001,5.92s0.37,-0.89 0.44998,-1.85c-0.10001,-0.13 -5.64999,-4.56001 -11.12,-5.67001c-6.69,-1.32 -10.29999,-0.74 -11.32999,-0.57999c-0.27002,0.32 -0.67001,1.73 -0.67001,1.73z" fill="#FFFFFF" id="svg_28"/>
    </g>
   </g>
   <g id="svg_29">
    <path class="st13" d="m331.07001,296.59c-1.48999,0.41 -2.19,1.11002 -2.09,2.11002l1.29001,13.17999l-10.37,1.01001c-0.29001,-0.83002 -0.94,-1.5 -1.94,-2c-4.05002,2.38998 -7.88,3.75998 -11.49002,4.12c-8.06998,0.78998 -14.26999,-1.03 -18.62,-5.47c-1.10999,-1.11002 -2.41998,-3.62 -3.91,-7.54001c-1.39999,-3.45001 -3.00998,-5.70001 -4.85999,-6.73001c2.07999,-1.47 3.32001,-3.94 3.72,-7.41c1.07999,-9.54999 7.56,-14.90994 19.44998,-16.06998c5.45001,-0.53 9.73001,0.03 12.85001,1.67999c0.12,-0.38 0.12,-0.95999 -0.01001,-1.73999l10.92001,-1.06l1.53,15.62997l-12.88,1.26001c-0.69,-5.95999 -3.62,-8.69 -8.81,-8.17999c-4.91998,0.47998 -7.13998,3.25 -6.64999,8.29999c0.29001,2.92001 1.29999,4.66 3.04999,5.22c-1.66998,1.85001 -2.37,4.12 -2.10999,6.83002c0.22998,2.34 1.01999,4.17999 2.35999,5.53c1.35001,1.34 3.20001,1.88998 5.56,1.66998c4.24002,-0.41 6.19,-2.39999 5.84003,-5.95999c-0.18002,-1.82999 -1.47,-2.63 -3.88,-2.39999c-0.26001,0.03 -0.52002,0.07001 -0.78,0.12c-0.26001,0.04999 -0.52002,0.12 -0.77002,0.20001l-0.64999,-6.68002l25.61002,-2.5l0.63998,6.60001l-3,0.28z" fill="#FFFFFF" id="svg_30"/>
    <path class="st13" d="m386.35999,308.70999c-1.26001,0.04999 -2.67999,-0.51001 -4.25,-1.66c-1.51999,-1.10001 -2.29999,-2.28 -2.35001,-3.54001l-0.25,-6.70999c-0.03,-0.84 -0.59,-1.63998 -1.66998,-2.38998c-1.08002,-0.75 -2.04001,-1.11002 -2.88,-1.08002l-6.63,0.25l0.22,5.92001c0.06,1.57999 0.57001,2.53 1.53,2.87c0.20999,0.04001 1.5,0.07001 3.87003,0.09l0.25,6.70999l-29.03003,1.10001l-0.25,-6.70999c3.79001,0.00998 6.03,-0.59 6.72,-1.83002c0.29999,-0.38 0.39999,-2.03998 0.29001,-4.98999c-0.09003,-2.47 -0.23001,-3.98999 -0.41,-4.57001c-0.48001,-1.39999 -1.51001,-2.38998 -3.11002,-2.95999c1.67001,-0.42999 2.67999,-1.60001 3.03,-3.51001c0.05002,-0.16 0.02002,-1.5 -0.06998,-4.03c-0.10001,-2.67999 -0.24002,-4.22998 -0.41,-4.64999c-0.41,-0.98001 -1.85001,-1.42999 -4.32001,-1.34c-0.42001,0.01999 -0.85001,0.04999 -1.30002,0.09c-0.44998,0.04001 -0.92999,0.10001 -1.44998,0.17001l-0.25,-6.71002l37.85999,-1.42999c3.05002,-0.12 6.02002,0.48001 8.92001,1.79999c3.81,1.75 6.22,4.32004 7.23999,7.70001c0.07001,0.42001 0.64001,0.98001 1.72,1.67001c-0.69998,0.97 -1.38,1.91 -2.03,2.79999c-0.64999,0.89001 -1.29999,1.72 -1.95999,2.48001c-2.11002,2.60999 -4.25,4 -6.39999,4.19c1.53998,0.25998 3,0.78 4.39999,1.56998c2.31,1.23001 3.5,2.66 3.56,4.29001l0.20001,5.36005c0.03,0.68994 0.62,1.18994 1.79999,1.50998c0.79999,0.23001 1.42999,0.34 1.91,0.32001c0.26001,-0.01001 0.47,-0.04001 0.63,-0.10001l0.25,6.69998l-15.38,0.62003l0,-0.00003zm-8.12997,-32.23999c-0.89999,-0.97 -1.95999,-1.42999 -3.17001,-1.38l-7.09998,0.26999l0.37997,9.94l7.34003,-0.28c1.09998,-0.03998 2.07999,-0.67999 2.92999,-1.92999c0.75,-1.03 1.10001,-2.14999 1.06,-3.35999c-0.06003,-1.20001 -0.53,-2.29001 -1.44,-3.26001z" fill="#FFFFFF" id="svg_31"/>
    <path class="st13" d="m414.23999,308.23001l0.09,-6.70999c0.47,0.06 0.92001,0.09 1.34,0.09c0.42001,0.00998 0.82001,0.00998 1.19,0.01999c2.47,0.03 3.95001,-0.56 4.44,-1.76001c0.16,-0.37 0.26001,-1.93997 0.29999,-4.72998c0.03003,-2.42001 0,-3.89999 -0.09998,-4.42001c-0.40002,-1.42999 -1.34,-2.53998 -2.80002,-3.35001c1.64001,-0.76999 2.63,-1.88998 2.96002,-3.35999c0.04999,-0.16 0.09998,-1.51999 0.12997,-4.10001c0.03,-2.53 -0.03,-4 -0.17999,-4.41998c-0.45999,-1.11002 -1.94998,-1.68002 -4.47998,-1.71002c-0.37003,0 -0.76001,0 -1.19,0.02002c-0.42001,0.01999 -0.84003,0.06 -1.26001,0.10001l0.09,-6.71002l31.41,0.39999l-0.09,6.71002l-5.05002,-0.06c-1.67999,-0.02002 -2.53998,1.28 -2.57999,3.91c0,0.25998 0.01001,0.56998 0.03,0.90997c0.01999,0.34003 0.06,0.72 0.10001,1.15002c0,0.10999 0,0.23999 -0.01001,0.38995c0,0.16 -0.03,0.37003 -0.09,0.63l-0.01999,1.17999c-0.03,2.37 0.97998,4.07001 3.00998,5.09c-1.63998,0.77002 -2.63,2.02002 -2.97,3.75c-0.04999,0.16 -0.09998,1.53 -0.12997,4.10001c-0.03003,2.20999 -0.02002,3.45001 0.03,3.70999c0.23999,1.85004 0.98999,2.78 2.25,2.79001l5.04999,0.07004l-0.09,6.70999l-31.38,-0.39999z" fill="#FFFFFF" id="svg_32"/>
    <path class="st13" d="m458.91,308.87l0.39999,-6.69998l5.75,0.34c1.67999,0.09998 2.61002,-1.27002 2.76999,-4.11002l0.08002,-1.41998l-0.03,-0.79001c0.13,-2.14999 0.14999,-3.5 0.07999,-4.03c-0.20999,-1.86002 -1.07999,-3.15002 -2.62,-3.87c2.17999,-1.14001 3.33002,-2.78 3.45001,-4.94003c0.00998,-0.25998 0.00998,-0.63998 -0.01001,-1.14996c-0.01999,-0.5 -0.03,-0.88 -0.01001,-1.15002l0.06,-1.01999c0.07001,-0.26001 0.11002,-0.48999 0.12003,-0.70999c0.01999,-0.26001 0.03,-0.44 0.03,-0.55002c0.14999,-2.47 -0.78,-3.75998 -2.78,-3.88l-5.28,-0.31l0.39999,-6.69998l32.62,1.92999l-0.39999,6.70001c-0.52002,-0.08002 -0.99002,-0.14001 -1.41,-0.16c-0.42001,-0.02002 -0.82001,-0.05002 -1.17999,-0.07001c-2.57001,-0.14999 -4.15002,0.23001 -4.73001,1.13998c-0.35001,0.56 -0.60001,2.15002 -0.76001,4.78c-0.12,2 -0.10999,3.26001 0.01001,3.80002c0.32999,1.5 1.29001,2.70999 2.87,3.64999c-0.41995,0.03 -1.13995,0.48999 -2.13995,1.38c-0.89001,0.78998 -1.35004,1.41998 -1.38,1.88998l-0.62,10.48001c0.20999,0.07001 0.48999,0.12 0.85999,0.16995c0.36002,0.05005 0.84,0.09006 1.42001,0.12006c1.78998,0.10999 3.37994,-0.17001 4.78998,-0.82001c1.73001,-0.79004 2.65002,-2 2.75,-3.63l0.34,-5.82999l11.98001,0.70999l-1.03,17.48996l-46.39999,-2.73996l-0.00003,0z" fill="#FFFFFF" id="svg_33"/>
    <path class="st13" d="m517.78003,312.63l0.75,-6.67001l5.72998,0.64001c1.67004,0.19 2.67004,-1.13 2.98999,-3.95001l0.16003,-1.41l0.01001,-0.79999c0.23999,-2.14001 0.33997,-3.48001 0.28998,-4.01999c-0.10999,-1.86002 -0.90997,-3.20001 -2.40997,-4c2.22998,-1.02002 3.46997,-2.60001 3.70996,-4.75c0.03003,-0.26001 0.05005,-0.64001 0.05005,-1.15002c0,-0.5 0.01996,-0.87997 0.04999,-1.14999l0.10999,-1.01999c0.08002,-0.25 0.13,-0.49002 0.15997,-0.70001c0.03003,-0.25998 0.05005,-0.44 0.06,-0.54999c0.28003,-2.45999 -0.57996,-3.80002 -2.56995,-4.02002l-5.26001,-0.59l0.75,-6.66998l32.47998,3.63998l-0.75,6.67001c-0.52002,-0.10999 -0.97998,-0.19 -1.40002,-0.23999c-0.41998,-0.05002 -0.81,-0.09003 -1.17999,-0.13c-2.56,-0.29001 -4.15997,0.00998 -4.78998,0.88998c-0.38,0.54001 -0.71002,2.12 -1.01001,4.73001c-0.21997,1.98999 -0.28998,3.25 -0.19,3.79001c0.25,1.50998 1.14001,2.78 2.66998,3.78998c-0.42999,0.01001 -1.15997,0.43002 -2.20996,1.26001c-0.92999,0.73999 -1.41998,1.35001 -1.47003,1.82001l-1.16998,10.42999c0.20001,0.08002 0.48999,0.14999 0.84998,0.21002c0.36005,0.06998 0.83002,0.12997 1.41003,0.19998c1.77997,0.20001 3.39001,0.01001 4.83002,-0.57001c1.76996,-0.69998 2.75,-1.85999 2.92999,-3.47998l0.64996,-5.80002l11.92004,1.34l-1.95001,17.41l-46.20001,-5.14999z" fill="#FFFFFF" id="svg_34"/>
   </g>
   <g id="svg_35">
    <g id="svg_36">
     <g id="svg_37">
      <path class="st13" d="m137.87,497.26001c-1.14,-0.01999 -3.2,-0.48999 -5.58,-1.64999c-5.52,-2.70001 -8.03999,-7.95999 -5.06998,-13.75c2.84,-5.53 8.72999,-7.23001 14.59,-4.37c2.36,1.14999 3.62,2.34 4.12,2.97c-0.5,0.53 -1,1.06998 -1.5,1.59998c-0.73,-0.87 -1.91,-1.82999 -3.48,-2.59998c-4.45,-2.17001 -8.73,-1.01001 -11.08,3.63998c-2.18999,4.33002 -0.87,8.51001 3.88,10.83002c1.53,0.75 3.24001,1.20999 4.47,1.23999c-0.11,0.69998 -0.23001,1.39999 -0.35002,2.09z" fill="#FFFFFF" id="svg_38"/>
     </g>
     <g id="svg_39">
      <path class="st13" d="m166.73,499.92001c-2.67,6.29001 -8.25998,7.85001 -13.31999,5.59c-5.24001,-2.34 -7.18001,-7.73001 -4.64,-13.17001c2.67,-5.70999 8.15999,-7.68997 13.26999,-5.41998c5.22,2.31998 6.99002,7.56998 4.69,13zm-15.25998,-6.40002c-1.77,3.85001 -1.08,8.36002 2.93999,10.14999c4.05,1.80002 7.83,-0.64999 9.61,-4.78998c1.56001,-3.63 1.17999,-8.27002 -2.95,-10.10001c-4.10001,-1.84 -7.78001,0.76999 -9.60001,4.73999l0.00002,0z" fill="#FFFFFF" id="svg_40"/>
     </g>
     <g id="svg_41">
      <path class="st13" d="m186.10001,517.97998c-1.12,0.07001 -3.2,-0.21997 -5.64998,-1.17999c-5.67001,-2.22998 -8.56001,-7.26001 -6.07002,-13.27002c2.38,-5.73999 8.08,-7.92999 14.10002,-5.56998c2.42,0.94998 3.76999,2.03 4.31,2.60999c-0.45,0.57001 -0.89999,1.14999 -1.36,1.72c-0.78999,-0.81 -2.03,-1.66 -3.64999,-2.29999c-4.57001,-1.79001 -8.71001,-0.28 -10.68001,4.54999c-1.84,4.48999 -0.20999,8.53998 4.67,10.46002c1.57001,0.62 3.3,0.94 4.52,0.87c-0.06001,0.71002 -0.12001,1.41003 -0.19,2.10999l-0.00002,0z" fill="#FFFFFF" id="svg_42"/>
     </g>
     <g id="svg_43">
      <path class="st13" d="m204.31,504.26999c-2.25,6.22 -4.48999,12.44998 -6.73999,18.67001c-0.87001,-0.31 -1.74001,-0.63 -2.61,-0.95001c2.26999,-6.21002 4.53999,-12.42999 6.81999,-18.64001c0.84,0.31003 1.68001,0.62003 2.53,0.92001z" fill="#FFFFFF" id="svg_44"/>
     </g>
     <g id="svg_45">
      <path class="st13" d="m208.00999,526.60999c2.14,-6.26001 4.28,-12.52002 6.42,-18.78c0.92999,0.32001 1.84999,0.63 2.78,0.94c1.03999,3.87997 2.11,7.75998 3.23,11.63998c0.77,2.70001 1.3,5.06 1.65001,7.31c0.01999,0 0.04999,-0.01001 0.06999,-0.01001c0.56,-2.59998 1.24001,-4.91998 2.18001,-7.87c0.84,-2.63995 1.67999,-5.26996 2.51999,-7.90997c0.8,0.26001 1.61,0.51001 2.41,0.76001c-1.98,6.31 -3.97,12.62 -5.94997,18.92999c-0.89001,-0.28003 -1.78001,-0.56 -2.67003,-0.84998c-1.14,-3.89001 -2.25,-7.78003 -3.30998,-11.67004c-0.70001,-2.56 -1.32002,-5.15997 -1.63,-7.53c-0.03,0 -0.07001,0 -0.10001,0c-0.65999,2.42001 -1.36,4.70004 -2.41,7.82999c-0.90001,2.68005 -1.81001,5.36005 -2.71001,8.03003c-0.82999,-0.26001 -1.65999,-0.53998 -2.48,-0.82001z" fill="#FFFFFF" id="svg_46"/>
     </g>
     <g id="svg_47">
      <path class="st13" d="m238.91,529.83002c-1.28,1.78998 -2.58,3.58002 -3.87001,5.37c-0.90999,-0.27002 -1.82999,-0.53998 -2.73999,-0.81c4.22,-5.64001 8.37,-11.32001 12.45,-17.02997c1.03999,0.29999 2.07001,0.58997 3.11,0.87994c0.48,7.01001 1.03,14.02002 1.66,21.04004c-0.95,-0.26001 -1.90001,-0.51001 -2.85002,-0.77002c-0.17998,-2.20996 -0.35999,-4.41998 -0.53,-6.62c-2.40999,-0.67999 -4.81998,-1.35999 -7.23,-2.06l0.00002,0zm7.22,-0.03003c-0.15001,-2.02002 -0.3,-4.03998 -0.44,-6.06c-0.10001,-1.37 -0.07001,-2.59003 -0.06,-3.78003c-0.02,-0.00995 -0.04001,-0.00995 -0.06,-0.01996c-0.62001,1.04999 -1.28001,2.12 -2,3.16998c-1.18002,1.65002 -2.37001,3.29999 -3.57002,4.95001c2.05,0.59003 4.09001,1.16998 6.13,1.73999l0.00002,0z" fill="#FFFFFF" id="svg_48"/>
     </g>
     <g id="svg_49">
      <path class="st13" d="m277.67001,528.08002c-2.05002,-0.46997 -4.10001,-0.95001 -6.14999,-1.44c0.16998,-0.71002 0.34,-1.40997 0.50998,-2.12c4.97,1.19 9.94,2.31 14.93002,3.38c-0.15002,0.71002 -0.30002,1.41998 -0.46002,2.13c-2.06998,-0.44 -4.13,-0.89001 -6.19,-1.35004c-1.28998,5.75 -2.57999,11.49005 -3.85999,17.24005c-0.91,-0.20001 -1.81,-0.41003 -2.70999,-0.61005c1.29999,-5.75 2.60999,-11.48999 3.92999,-17.22998z" fill="#FFFFFF" id="svg_50"/>
     </g>
     <g id="svg_51">
      <path class="st13" d="m295,529.83002c1.37,0 3.29001,0.22998 5.10001,0.58002c2.79999,0.52997 4.50998,1.35999 5.57999,2.69c0.87,1.06 1.20001,2.48999 0.94,4c-0.45999,2.57996 -2.47998,3.98999 -4.78,4.27997c-0.01001,0.03003 -0.01001,0.06 -0.01999,0.09003c1.48999,0.82001 2.19,2.38 2.32001,4.5c0.18997,2.84998 0.34998,4.82001 0.64999,5.64996c-0.93002,-0.16998 -1.86002,-0.32996 -2.80002,-0.5c-0.23999,-0.60999 -0.39999,-2.38 -0.53998,-4.91998c-0.12003,-2.81 -1.03,-4.02002 -3.43002,-4.57001c-0.84,-0.15997 -1.66998,-0.32001 -2.50998,-0.48999c-0.55002,2.81 -1.10001,5.62 -1.65002,8.44c-0.89999,-0.17999 -1.79999,-0.34998 -2.69998,-0.52997c1.28,-6.42004 2.56,-12.82007 3.84,-19.22003zm0.88,9.38995c0.91,0.17999 1.81,0.34998 2.72,0.53003c2.84,0.53998 4.91998,-0.61005 5.32001,-2.84003c0.45999,-2.52002 -1.23999,-3.97003 -4.01001,-4.53003c-1.26999,-0.23999 -2.19,-0.29999 -2.64001,-0.26996c-0.45999,2.37 -0.92999,4.73999 -1.38998,7.10999z" fill="#FFFFFF" id="svg_52"/>
     </g>
     <g id="svg_53">
      <path class="st13" d="m318.45001,547.57001c-1.04001,1.94 -2.10001,3.88 -3.14999,5.82001c-0.93002,-0.15002 -1.87,-0.29999 -2.80002,-0.46002c3.46002,-6.13 6.84,-12.28998 10.16,-18.46997c1.06,0.15997 2.12,0.32001 3.17001,0.47998c1.34,6.89001 2.75998,13.77002 4.25,20.66003c-0.97,-0.13 -1.94,-0.27002 -2.89999,-0.41003c-0.46002,-2.16998 -0.90002,-4.33002 -1.35001,-6.5c-2.46002,-0.35999 -4.92001,-0.72998 -7.38,-1.12zm7.10999,-0.94c-0.39999,-1.97998 -0.79999,-3.97003 -1.17999,-5.95001c-0.27002,-1.34998 -0.39001,-2.56 -0.52002,-3.73999c-0.01999,0 -0.03998,-0.01001 -0.06,-0.01001c-0.47998,1.12 -1,2.26001 -1.57999,3.39001c-0.95999,1.78998 -1.92999,3.58002 -2.89999,5.35999c2.07999,0.33002 4.16,0.64001 6.23999,0.95001z" fill="#FFFFFF" id="svg_54"/>
     </g>
     <g id="svg_55">
      <path class="st13" d="m341.66,537.35999c1.63998,-0.02997 3.57001,0.02002 5.66,0.26001c3.78998,0.42999 6.39999,1.56 8.03998,3.34998c1.67001,1.79004 2.52002,4.17999 2.21002,7.38c-0.31,3.22003 -1.62,5.76001 -3.77002,7.38c-2.14999,1.65002 -5.51999,2.29999 -9.62,1.83002c-1.94,-0.22003 -3.56,-0.51001 -4.91,-0.82001c0.79001,-6.45996 1.59,-12.91998 2.39001,-19.38zm0.56,17.75c0.67001,0.20001 1.67001,0.34998 2.73001,0.47003c5.81,0.65997 9.28,-2.08002 9.81,-7.41003c0.48999,-4.65997 -1.95001,-7.88 -7.55002,-8.51001c-1.37,-0.15997 -2.41998,-0.15997 -3.13998,-0.09998c-0.61002,5.17999 -1.23001,10.35999 -1.85001,15.54999z" fill="#FFFFFF" id="svg_56"/>
     </g>
     <g id="svg_57">
      <path class="st13" d="m370.48001,539.97998c-0.51001,6.59998 -1.01999,13.19 -1.53,19.78998c-0.91,-0.07001 -1.82001,-0.13995 -2.73001,-0.21997c0.54001,-6.59003 1.07001,-13.19 1.61002,-19.78003c0.88998,0.08002 1.76999,0.15002 2.64999,0.21002z" fill="#FFFFFF" id="svg_58"/>
     </g>
     <g id="svg_59">
      <path class="st13" d="m394.67001,560.59998c-1.01999,0.42999 -3.05002,0.83002 -5.63,0.71002c-5.98999,-0.28003 -10.26001,-4.10004 -9.84,-10.59003c0.39999,-6.20001 5.01999,-10.12 11.37,-9.83002c2.56,0.12006 4.14999,0.71002 4.84,1.08002c-0.23999,0.69 -0.47998,1.38 -0.72,2.06c-0.98999,-0.51001 -2.41,-0.91998 -4.13,-1c-4.81998,-0.21997 -8.19998,2.54999 -8.50998,7.76001c-0.29001,4.84998 2.50998,8.15002 7.64999,8.39001c1.66,0.08002 3.37,-0.17999 4.48001,-0.64001c0.16998,0.69 0.32999,1.38 0.48999,2.06z" fill="#FFFFFF" id="svg_60"/>
     </g>
     <g id="svg_61">
      <path class="st13" d="m407.31,541.75c-0.12,6.60999 -0.25,13.22998 -0.37,19.84003c-0.91,-0.02002 -1.82001,-0.04004 -2.73999,-0.06c0.14999,-6.61005 0.29999,-13.23004 0.45999,-19.84003c0.88,0.02997 1.76001,0.03998 2.64999,0.06z" fill="#FFFFFF" id="svg_62"/>
     </g>
     <g id="svg_63">
      <path class="st13" d="m435.70001,551.37c0.19,6.83002 -4.16,10.57001 -9.58002,10.63c-5.62,0.06 -9.53,-4.03003 -9.48999,-10.03998c0.04001,-6.30005 4.11002,-10.40002 9.58002,-10.46002c5.59998,-0.06 9.32999,3.97998 9.48999,9.87zm-16.19,0.53003c-0.01001,4.23999 2.44,8.04999 6.75,8c4.34,-0.04999 6.70001,-3.84998 6.60001,-8.34998c-0.09,-3.95001 -2.32001,-8.01001 -6.75,-7.96002c-4.39001,0.04999 -6.60001,3.94995 -6.60001,8.31z" fill="#FFFFFF" id="svg_64"/>
     </g>
     <g id="svg_65">
      <path class="st13" d="m445.64001,561.16998c-0.27002,-6.60999 -0.54001,-13.22003 -0.80002,-19.83002c0.96002,-0.03998 1.93002,-0.07996 2.89001,-0.12c2.34,3.23999 4.72,6.47998 7.13998,9.69c1.67999,2.23999 3.02002,4.25 4.13998,6.22003c0.01999,-0.01001 0.04001,-0.02002 0.06,-0.03003c-0.40997,-2.63 -0.62,-5.03998 -0.81,-8.12c-0.17001,-2.76001 -0.34,-5.53003 -0.51001,-8.28998c0.83002,-0.05005 1.66,-0.10004 2.5,-0.16003c0.43002,6.60004 0.86002,13.20001 1.29001,19.79999c-0.91998,0.06 -1.84,0.12 -2.76001,0.17004c-2.44,-3.21002 -4.84998,-6.44 -7.22998,-9.67999c-1.57001,-2.13 -3.06,-4.33002 -4.19,-6.43005c-0.03,0.01001 -0.06,0.02002 -0.09,0.03003c0.26999,2.48999 0.42999,4.87 0.57999,8.16998c0.13,2.82001 0.25,5.65002 0.38,8.47003c-0.87003,0.03998 -1.73001,0.08002 -2.59,0.10999l0.00003,0z" fill="#FFFFFF" id="svg_66"/>
     </g>
     <g id="svg_67">
      <path class="st13" d="m475.29999,553.03003c-0.54001,2.14001 -1.10001,4.27002 -1.64999,6.40997c-0.94,0.08002 -1.88,0.16003 -2.82001,0.23004c1.87,-6.78003 3.67001,-13.58002 5.39999,-20.37c1.06,-0.10004 2.13,-0.19 3.19,-0.30005c2.96002,6.36005 5.99002,12.71002 9.09,19.03003c-0.97,0.09998 -1.94,0.20001 -2.91,0.29999c-0.95999,-1.98999 -1.91998,-3.98999 -2.87,-5.98999c-2.47998,0.25 -4.94998,0.47998 -7.42999,0.69zm6.67001,-2.62006c-0.87,-1.83002 -1.73001,-3.65997 -2.57999,-5.48999c-0.58002,-1.25 -1,-2.39001 -1.41,-3.51001c-0.02002,0 -0.04001,0 -0.06,0.01001c-0.19,1.20001 -0.42001,2.42999 -0.71002,3.66998c-0.5,1.97003 -1.00998,3.92999 -1.51999,5.90002c2.09,-0.17999 4.17999,-0.38 6.28,-0.58002z" fill="#FFFFFF" id="svg_68"/>
     </g>
     <g id="svg_69">
      <path class="st13" d="m495.31,537.28003c0.88,-0.10999 1.76001,-0.21002 2.64001,-0.32001c0.72998,5.85004 1.47,11.71002 2.19998,17.56c2.99002,-0.37 5.98001,-0.77002 8.97,-1.19c0.10001,0.71002 0.20001,1.41998 0.30002,2.13c-3.90002,0.53998 -7.81003,1.04999 -11.72,1.53003c-0.80002,-6.58008 -1.59003,-13.14008 -2.39001,-19.71002z" fill="#FFFFFF" id="svg_70"/>
     </g>
     <g id="svg_71">
      <path class="st13" d="m527.83002,532.75c1.10999,-0.42999 2.88,-0.91998 4.72003,-1.26001c2.62,-0.47998 4.37994,-0.35999 5.83997,0.38c1.20001,0.54999 2.06,1.58002 2.35999,3.10999c0.37,1.88 -0.62,3.78003 -2.64996,4.94c0,0.02002 0.01001,0.04004 0.01001,0.06c2.03998,0.10004 4.62994,1.17999 5.19,4.07001c0.32996,1.67999 -0.13,3.09003 -1,4.23999c-1.21002,1.52002 -3.47003,2.55005 -6.88,3.17004c-1.86005,0.33997 -3.32001,0.46997 -4.24005,0.50995c-1.10999,-6.38995 -2.22998,-12.81 -3.34998,-19.21997zm4.06,7.53998c0.79999,-0.14001 1.60999,-0.28998 2.40997,-0.42999c2.81,-0.51001 4.19,-2.22003 3.83002,-4.09998c-0.44,-2.29004 -2.40997,-2.83002 -5.07001,-2.35004c-1.20996,0.22003 -1.89001,0.42999 -2.29999,0.59003c0.38,2.09998 0.75,4.19 1.13,6.28998zm1.66998,9.36005c0.53998,-0.01001 1.32001,-0.12 2.28003,-0.28998c2.78998,-0.51001 5.17999,-1.95001 4.62994,-4.79004c-0.50995,-2.65997 -3.12994,-3.29999 -6.03998,-2.76996c-0.72998,0.12994 -1.46997,0.26996 -2.20001,0.39996c0.44,2.48999 0.88,4.96997 1.33002,7.45001z" fill="#FFFFFF" id="svg_72"/>
     </g>
     <g id="svg_73">
      <path class="st13" d="m550,528.48999c1.27002,-0.53998 3.12,-1.09003 4.91998,-1.47998c2.79004,-0.61005 4.69,-0.53003 6.20001,0.26996c1.22003,0.63 2.09003,1.81 2.44,3.30005c0.59998,2.54999 -0.71002,4.63995 -2.71002,5.81995c0.01001,0.03003 0.01001,0.06 0.02002,0.09003c1.70001,0.15997 2.96002,1.32001 3.91003,3.21997c1.28998,2.54004 2.21997,4.29004 2.82996,4.94c-0.91998,0.22003 -1.84998,0.43005 -2.76996,0.64001c-0.46002,-0.46997 -1.31,-2.02997 -2.44,-4.31c-1.22003,-2.52997 -2.54004,-3.28998 -4.96002,-2.83997c-0.83002,0.17999 -1.66998,0.35999 -2.5,0.53998c0.59998,2.79999 1.21002,5.59998 1.81,8.40002c-0.90002,0.19 -1.78998,0.37994 -2.69,0.56995c-1.35999,-6.38995 -2.71002,-12.77997 -4.06,-19.15997zm4.52002,8.28003c0.90002,-0.19 1.79999,-0.39001 2.71002,-0.59003c2.82996,-0.62 4.28998,-2.5 3.77997,-4.70996c-0.57001,-2.5 -2.70996,-3.16003 -5.47998,-2.58002c-1.26001,0.28003 -2.14001,0.59003 -2.53003,0.78998c0.5,2.37 1.01001,4.72998 1.52002,7.09003z" fill="#FFFFFF" id="svg_74"/>
     </g>
     <g id="svg_75">
      <path class="st13" d="m578.60999,535.53003c-0.20001,2.20001 -0.40002,4.39001 -0.60999,6.59003c-0.91998,0.22998 -1.84003,0.45996 -2.77002,0.69c0.77002,-7 1.46002,-14 2.08002,-20.99005c1.03998,-0.26996 2.08002,-0.53998 3.12,-0.81c3.96002,5.80005 7.98999,11.56 12.09998,17.30005c-0.94995,0.25995 -1.89996,0.51996 -2.83997,0.77997c-1.28003,-1.81 -2.54999,-3.62 -3.81,-5.44c-2.42999,0.63 -4.84998,1.25995 -7.27002,1.88zm6.20001,-3.68005c-1.15002,-1.65997 -2.29999,-3.33002 -3.45001,-5c-0.77997,-1.13 -1.38,-2.20001 -1.95996,-3.22998c-0.02002,0.01001 -0.04004,0.01001 -0.06,0.01996c0,1.22003 -0.03003,2.47003 -0.12006,3.74005c-0.17999,2.01996 -0.37,4.04999 -0.56,6.06995c2.05005,-0.51996 4.10004,-1.05994 6.15002,-1.59998z" fill="#FFFFFF" id="svg_76"/>
     </g>
     <g id="svg_77">
      <path class="st13" d="m600.27002,532.87c1.38,0.34003 3.28003,0.39001 5.09998,-0.15002c2.70001,-0.81 3.87,-2.62 3.29004,-4.52997c-0.54004,-1.78003 -1.92999,-2.45001 -4.96002,-2.62c-3.63,-0.10999 -6.14001,-1.14001 -6.90997,-3.83002c-0.86005,-2.96997 1.07996,-5.91998 4.94,-7.08002c2.02997,-0.60999 3.63995,-0.62 4.67999,-0.40997c-0.03003,0.73999 -0.06,1.47998 -0.09003,2.21997c-0.76001,-0.13995 -2.26001,-0.28998 -4.06,0.25c-2.71997,0.82001 -3.29999,2.67004 -2.91998,3.97003c0.52002,1.77997 2,2.29999 5.08997,2.47998c3.78003,0.21002 6,1.21002 6.87006,4c0.90997,2.92004 -0.63,6.19 -5.48004,7.64001c-1.97998,0.59003 -4.29999,0.69 -5.58997,0.32001c-0.01007,-0.75 0.00995,-1.51001 0.03998,-2.26001z" fill="#FFFFFF" id="svg_78"/>
     </g>
     <g id="svg_79">
      <path class="st13" d="m618.77002,509.60001c2.09003,6.28 4.16998,12.56003 6.25,18.82999c-0.88,0.29004 -1.75,0.58002 -2.63,0.87c-2.06,-6.28998 -4.12,-12.57001 -6.16998,-18.85999c0.84998,-0.26999 1.69995,-0.54999 2.54999,-0.84z" fill="#FFFFFF" id="svg_80"/>
     </g>
     <g id="svg_81">
      <path class="st13" d="m628.90997,506.14001c0.84998,-0.30002 1.69,-0.60001 2.53998,-0.89999c1.98004,5.56 3.95001,11.11996 5.92999,16.67001c2.88,-1.02002 5.74005,-2.07001 8.61005,-3.13c0.25,0.66998 0.5,1.33997 0.75,2.01001c-3.73999,1.38995 -7.48999,2.75 -11.25,4.06995c-2.20001,-6.23999 -4.39001,-12.47998 -6.58002,-18.71997z" fill="#FFFFFF" id="svg_82"/>
     </g>
     <g id="svg_83">
      <path class="st13" d="m662.32001,504.73999c-2.54999,1.04001 -5.10999,2.07001 -7.66998,3.07001c0.87,2.22 1.73999,4.44 2.62,6.65997c2.89001,-1.13995 5.77002,-2.28998 8.64996,-3.46997c0.27002,0.66 0.54004,1.33002 0.81,1.98999c-3.75,1.53003 -7.5,3.03003 -11.26996,4.48999c-2.39001,-6.16998 -4.79004,-12.32999 -7.17999,-18.5c3.51001,-1.35999 7,-2.75998 10.48999,-4.17999c0.27002,0.66 0.53998,1.33002 0.81,1.98999c-2.66003,1.09003 -5.33002,2.16 -8.01001,3.21002c0.76001,1.94998 1.53003,3.88998 2.28998,5.84c2.55005,-1 5.10004,-2.03 7.65002,-3.06c0.27002,0.64999 0.53998,1.29999 0.81,1.95999z" fill="#FFFFFF" id="svg_84"/>
     </g>
     <g id="svg_85">
      <path class="st13" d="m675.83002,509.17999c-2.59998,-6.08002 -5.20001,-12.17001 -7.79999,-18.25c0.90997,-0.39001 1.81,-0.78 2.71997,-1.17001c3.39001,2.18002 6.80005,4.34 10.23999,6.47c2.39001,1.48001 4.39001,2.87 6.15002,4.30002c0.02002,-0.02002 0.03003,-0.04001 0.04999,-0.05002c-1.32996,-2.31 -2.38,-4.47998 -3.64996,-7.29999c-1.14001,-2.51999 -2.28003,-5.04001 -3.42004,-7.57001c0.78003,-0.35001 1.55005,-0.69998 2.33002,-1.06c2.75,6.01999 5.5,12.03 8.25,18.04999c-0.85999,0.39001 -1.71997,0.78003 -2.58002,1.17001c-3.46997,-2.10999 -6.91998,-4.25 -10.32996,-6.42001c-2.25,-1.41998 -4.45001,-2.93997 -6.28003,-4.48999c-0.02002,0.02002 -0.04999,0.04001 -0.07001,0.06c1.14001,2.24002 2.14001,4.39999 3.45001,7.42999c1.12,2.59003 2.23999,5.19 3.35999,7.78003c-0.81,0.35999 -1.62,0.70999 -2.41998,1.04999zm-4.46002,-21.00998c-0.77997,-1.62 -0.52002,-3.05002 0.72998,-3.60001c0.62,-0.26999 1.18005,-0.23001 1.91003,-0.20001c0.56,0.04001 1.12,0.08002 1.57001,-0.12c0.41998,-0.19 0.59998,-0.48999 0.29999,-1.38998c0.42999,-0.19 0.87,-0.39001 1.29999,-0.58002c0.78998,1.68002 0.58002,2.87003 -0.72998,3.46002c-0.60004,0.26999 -1.20001,0.28 -1.96002,0.25998c-0.65997,-0.03 -1.15997,-0.09998 -1.56,0.08002c-0.45001,0.19998 -0.47998,0.75998 -0.21997,1.50998c-0.44,0.19 -0.89001,0.39001 -1.34003,0.58002z" fill="#FFFFFF" id="svg_86"/>
     </g>
     <g id="svg_87">
      <path class="st13" d="m701.25,490.73001c0.23999,2.20001 0.46997,4.39999 0.69,6.60001c-0.87,0.41998 -1.73999,0.84 -2.62,1.25c-0.62,-7.03 -1.29999,-14.04001 -2.06,-21.04001c0.97998,-0.48001 1.96997,-0.95999 2.95001,-1.45001c5.08997,4.86002 10.23999,9.68002 15.44995,14.45001c-0.88995,0.45001 -1.78998,0.91 -2.67999,1.36002c-1.63,-1.51001 -3.25,-3.02002 -4.87,-4.54001c-2.27997,1.13998 -4.57001,2.25998 -6.85999,3.37zm5.45001,-4.91c-1.47998,-1.38998 -2.95001,-2.79001 -4.40997,-4.19c-1,-0.94998 -1.80005,-1.87 -2.59003,-2.76001c-0.02002,0.01001 -0.03998,0.02002 -0.06,0.03003c0.23999,1.19998 0.46002,2.42999 0.62,3.69998c0.21997,2.01999 0.42999,4.05002 0.64001,6.08002c1.94,-0.94003 3.87,-1.89001 5.79999,-2.86002z" fill="#FFFFFF" id="svg_88"/>
     </g>
    </g>
    <g id="svg_89">
     <circle class="st134" cx="98.41" cy="468.86" r="9.51" fill="#E1A341" id="svg_90"/>
    </g>
    <g id="svg_91">
     <circle class="st134" cx="735.61" cy="466.01" r="9.51" fill="#E1A341" id="svg_92"/>
    </g>
    <g id="svg_93">
     <g id="svg_94">
      <g id="svg_95">
       <path class="st138" d="m448.98001,396.64999c-0.70001,-1.89999 -1.62,-3.73001 -2.76999,-5.39999c-0.70001,-1 -1.47,-1.95001 -2.35001,-2.80002c-0.54001,-0.53 -3.03,-1.88 -3.19,-2.44998c0,0 2.82999,9.60999 -2.39001,15.13c-0.5,-4.97 -1.75998,-9.86002 -3.75998,-14.43002c-1.33002,-3.04999 -2.99002,-5.94998 -4.98001,-8.62c-0.98999,-1.32999 -2.04999,-2.62 -3.20999,-3.81c-0.45001,-0.45999 -2.42001,-1.78 -2.47,-2.42999c1.07001,12.89999 -16.13,15.59 -15.95001,29.92999c-6.10999,-5.38 -3.04999,-15.76999 -3.04999,-15.76999c-0.17001,0.56998 -2.64999,1.91998 -3.19,2.44998c-0.88,0.85001 -1.64999,1.80002 -2.35001,2.80002c-1.16,1.66998 -2.07001,3.48999 -2.76999,5.39999c-1.48001,4.03 -1.99002,8.40997 -1.67001,12.67996c0.64001,8.38 4.73999,16.97 12.48999,20.93002c12.15002,6.20001 25.24002,3.01001 30.79001,0c7.64999,-4.14999 11.85001,-12.53998 12.49002,-20.93002c0.31998,-4.26999 -0.19003,-8.64996 -1.67001,-12.67996z" fill="#FF9D20" id="svg_96"/>
      </g>
      <g id="svg_97">
       <path class="st139" d="m444.25,406.98001c-5.32999,10.04001 -11.35001,9.73999 -12.91,9.47c0.63,-6.67001 -1.10001,-14.78 -7.37,-22.37c-0.32999,-0.31 -12.14001,12.72998 -12.01001,22.41c-5.09,-2.31 -7.62,-6.38 -8.35999,-9.51001c-3.62,5.92001 -3.09,13.35999 0.48999,19.17999c3.78,6.14996 12.04001,8.75 18.92999,8.42996c6.95001,-0.31998 13.71002,-3.64996 18,-9.14996c3.39001,-4.35004 5.04001,-9.87003 4.09,-15.35004c-0.17999,-1.04999 -0.42999,-2.13995 -0.85999,-3.10999l0,0.00003z" fill="#EF4A21" id="svg_98"/>
      </g>
     </g>
     <g id="svg_99">
      <g id="svg_100">
       <g id="svg_101">
        <path class="st13" d="m485.60999,423.94c0.16,-0.17001 0.14001,-0.45001 -0.06,-0.60001c-0.16,-0.12 -0.38,-0.10001 -0.53,0.03c-8.12,6.94 -16,14.12 -23.82001,21.37c-3.91,3.63 -7.78998,7.29001 -11.64999,10.97l-2.88998,2.76001l-1.44,1.38l-0.72,0.69c-0.14001,0.13998 -0.20001,0.17999 -0.28,0.25998c-0.04001,0.04001 -0.08002,0.08002 -0.12003,0.11002l-0.12997,0.09c-0.67001,0.48999 -1.52002,0.73999 -2.36002,0.67001c-0.84,-0.07001 -1.63,-0.44 -2.22,-1.03c-0.59,-0.60001 -0.95999,-1.38 -1.01999,-2.22c-0.08002,-0.84003 0.17999,-1.69 0.66998,-2.36002l0.09003,-0.13c0.03,-0.03998 0.06998,-0.07999 0.10999,-0.12c0.07999,-0.09 0.12,-0.14999 0.26001,-0.28l0.69,-0.72c0,0 11.5,-12.06 15.12997,-15.97c7.26001,-7.81 14.45001,-15.69998 21.40002,-23.81c0.14999,-0.17999 0.14999,-0.44 -0.01001,-0.62c-0.17001,-0.19 -0.47,-0.20999 -0.66,-0.03c-7.92999,7.14996 -15.63,14.54001 -23.25,21.98999c-3.81,3.72998 -15.57001,15.52002 -15.57001,15.52002l-0.69998,0.70996c-0.10001,0.10004 -0.28,0.29004 -0.42001,0.44998c-0.07001,0.08005 -0.14999,0.16 -0.22,0.25l-0.20999,0.27002c-1.10001,1.45999 -1.64001,3.34003 -1.5,5.16c0.03,0.45999 0.10999,0.92999 0.23001,1.37997c0,0.01001 0,0.01001 0,0.02002c0.04999,0.19 -0.02002,0.39999 -0.16,0.54001l-10.08002,10.12997l5.09,5.09003l10.11002,-10.11002c0.13998,-0.13998 0.35004,-0.20999 0.54004,-0.16c0,0 0,0 0,0c0.45996,0.12 0.91995,0.20001 1.38995,0.23001c1.82001,0.14999 3.69,-0.39999 5.16,-1.5l0.26999,-0.20999c0.09,-0.07001 0.17001,-0.15002 0.25,-0.22c0.16,-0.14001 0.35001,-0.32001 0.45001,-0.42001l0.70999,-0.70001l1.42001,-1.40994l2.84,-2.82004c3.76999,-3.77002 7.53,-7.55002 11.25,-11.36002c7.44,-7.63 14.82001,-15.32999 21.95999,-23.26999l0,0.00003z" fill="#FFFFFF" id="svg_102"/>
       </g>
       <g id="svg_103">
        <g id="svg_104">
         <path class="st140" d="m375.41,524.85999l-0.23001,-0.22998c-2.10001,-2.10004 -2.06,-5.53003 0.10001,-7.57001l48.88,-46.28l5.09,5.09l-46.28,48.88c-2.04001,2.16998 -5.45999,2.21002 -7.56,0.10999z" fill="#FF470F" id="svg_105"/>
        </g>
        <g id="svg_106">
         <path class="st13" d="m406.79999,490.81c0.60001,-0.60001 1.56,-0.60001 2.16,0c0.60001,0.60001 0.60001,1.56 0,2.16c-0.60001,0.60001 -1.56,0.60001 -2.16,0c-0.59998,-0.60001 -0.59998,-1.57001 0,-2.16z" fill="#FFFFFF" id="svg_107"/>
        </g>
        <g id="svg_108">
         <circle class="st13" cx="396.61" cy="503.16" r="1.53" fill="#FFFFFF" id="svg_109"/>
        </g>
        <g id="svg_110">
         <path class="st13" d="m384.26001,513.34998c0.60001,-0.59998 1.56,-0.59998 2.16,0c0.60001,0.59998 0.60001,1.56 0,2.16003c-0.60001,0.59998 -1.56,0.59998 -2.16,0c-0.60001,-0.60004 -0.60001,-1.57001 0,-2.16003z" fill="#FFFFFF" id="svg_111"/>
        </g>
       </g>
       <g id="svg_112">
        <rect x="429.21" y="475.89" transform="matrix(0.6881 -0.7256 0.7256 0.6881 -211.4372 459.8598)" class="st141" width="0.06" height="0" fill="#35312F" id="svg_113"/>
       </g>
      </g>
      <g id="svg_114">
       <g id="svg_115">
        <path class="st13" d="m370.62,410.20001l-18.45999,18.45999c-0.82001,0.82001 -0.82001,2.14001 0,2.95999l21.13,21.13c4.41,4.41 11.09,5.65002 16.78998,3.12c0.24002,-0.10999 0.48001,-0.21997 0.72,-0.34c0.27002,-0.13998 0.60001,-0.07999 0.81,0.13l23.58002,23.58002l5.10999,-5.11002l-23.34998,-23.35004c-0.23001,-0.22998 -0.27002,-0.57999 -0.11002,-0.85999c0.33002,-0.53 0.62,-1.09 0.88,-1.67001l0.04999,-0.10999c2.56,-5.72 1.32001,-12.42001 -3.10999,-16.85001l-21.09,-21.09c-0.81,-0.81 -2.13,-0.81 -2.95001,0l0,0.00003zm9.42001,37.41998c0.67001,0.67999 0.67999,1.77002 0,2.45001c-0.67999,0.67999 -1.76999,0.67999 -2.45001,0l-17.59,-17.59c-0.67999,-0.68002 -0.67999,-1.77002 0,-2.45001c0.68002,-0.68002 1.77002,-0.68002 2.45001,0l17.59,17.59zm-16.03,-19.13998c-0.67999,-0.67999 -0.67999,-1.76999 0,-2.45001c0.67999,-0.67999 1.76999,-0.67999 2.45001,0l17.59,17.59c0.67999,0.68002 0.67999,1.77002 0,2.45001c-0.68002,0.67001 -1.77002,0.67001 -2.45001,0l-17.59,-17.59zm24.03,11.14999c0.67999,0.67999 0.67999,1.76999 0,2.44998s-1.76999,0.68002 -2.45001,0l-17.59,-17.59c-0.67999,-0.67999 -0.67999,-1.76999 0,-2.45001c0.67999,-0.67999 1.76999,-0.67999 2.45001,0l17.59,17.59003zm3.98999,-3.98999c0.67999,0.67999 0.67999,1.76999 0,2.44998c-0.67999,0.68002 -1.76999,0.68002 -2.45001,0l-17.57999,-17.60001c-0.67999,-0.67999 -0.67999,-1.76999 0,-2.45001c0.67999,-0.67999 1.76999,-0.67999 2.45001,0l17.57999,17.60004z" fill="#FFFFFF" id="svg_116"/>
       </g>
       <g id="svg_117">
        <g id="svg_118">
         <path class="st140" d="m466.48001,525.15002l-0.23001,0.22998c-2.09998,2.10004 -5.53,2.06 -7.56998,-0.09998l-46.28,-48.88l5.09,-5.09l48.87997,46.28c2.16,2.03998 2.20999,5.45996 0.11002,7.56z" fill="#FF470F" id="svg_119"/>
        </g>
        <g id="svg_120">
         <path class="st13" d="m432.42001,493.76001c-0.60001,-0.60001 -0.60001,-1.56 0,-2.16c0.60001,-0.60001 1.56,-0.60001 2.16,0c0.60001,0.60001 0.60001,1.56 0,2.16c-0.60001,0.59 -1.56003,0.59 -2.16,0z" fill="#FFFFFF" id="svg_121"/>
        </g>
        <g id="svg_122">
         <path class="st13" d="m443.69,505.03c-0.60001,-0.60001 -0.60001,-1.56 0,-2.16c0.60001,-0.60001 1.56,-0.60001 2.16,0c0.60001,0.60001 0.60001,1.56 0,2.16c-0.60001,0.59 -1.56,0.59 -2.16,0z" fill="#FFFFFF" id="svg_123"/>
        </g>
        <g id="svg_124">
         <path class="st13" d="m454.95999,516.29999c-0.60001,-0.59998 -0.60001,-1.56 0,-2.15997c0.60001,-0.60004 1.56,-0.60004 2.16,0c0.60001,0.59998 0.60001,1.56 0,2.15997s-1.56,0.59003 -2.16,0z" fill="#FFFFFF" id="svg_125"/>
        </g>
       </g>
      </g>
     </g>
     <g id="svg_126">
      <g id="svg_127">
       <path class="st138" d="m345.19,476.76999l36.76001,-5.97c3.5,-0.57001 6.81998,1.64001 7.41998,4.94c0.60001,3.29999 -1.73999,6.42999 -5.23999,7c-0.73001,0.12 -1.48001,0.10999 -2.17999,0l-36.76001,-5.97z" fill="#FF9D20" id="svg_128"/>
      </g>
      <g id="svg_129">
       <path class="st138" d="m496.42999,476.76001l-36.76001,5.97c-3.5,0.57001 -6.82001,-1.64001 -7.41998,-4.94c-0.60001,-3.29999 1.73999,-6.42999 5.23999,-7c0.73001,-0.12 1.48001,-0.10999 2.17999,0l36.76001,5.97z" fill="#FF9D20" id="svg_130"/>
      </g>
     </g>
    </g>
   </g>
   <g id="svg_131">
    <path class="st13" d="m158.14999,222.38c-2.41,1.09 -3.41,2.44 -2.99002,4.03998l5.60002,21.3l-17.24002,4.53c-0.70998,-1.28998 -1.98,-2.2 -3.78998,-2.74001c-6.22,5.05 -12.33002,8.36002 -18.34,9.94003c-13.41,3.51999 -24.36,2.25 -32.84999,-3.83003c-2.17,-1.50999 -5.02,-5.26999 -8.55,-11.29999c-3.25,-5.29001 -6.57,-8.52 -9.95,-9.71001c3.13,-2.99002 4.58,-7.39 4.35,-13.20001c-0.66,-15.99001 8.89,-26.57999 28.66,-31.78c9.06,-2.37999 16.43999,-2.64 22.13998,-0.79999c0.11,-0.66 -0.05,-1.61 -0.46999,-2.86l18.16,-4.77l6.64,25.26001l-21.42,5.62999c-2.71,-9.59999 -8.38,-13.26999 -17,-11c-8.19,2.15001 -11.21,7.31 -9.06,15.47c1.24,4.71001 3.39999,7.29001 6.5,7.74001c-2.34,3.48999 -2.94,7.42999 -1.79,11.8c1,3.78999 2.8,6.59 5.43,8.42c2.62,1.83 5.89,2.23 9.81,1.2c7.05,-1.85001 9.83,-5.65999 8.31,-11.40999c-0.78,-2.95999 -3.17,-3.92001 -7.18,-2.86c-0.43999,0.12001 -0.87,0.25 -1.29,0.40999c-0.43,0.16 -0.84,0.34001 -1.25999,0.53l-2.84,-10.78998l42.59,-11.19l2.79999,10.66l-4.97,1.31z" fill="#FFFFFF" id="svg_132"/>
    <path class="st13" d="m222.95,235.34l-1.86,-11c1.43001,-0.14999 2.57001,-0.31999 3.41,-0.50998c0.84,-0.19 1.47,-0.36 1.89999,-0.52c2.22,-0.91 3.15001,-2.44 2.78,-4.59999c-0.21999,-1.29001 -0.98,-2.58 -2.29999,-3.87001l-26.77,4.53c-0.73,2.17 -1.00999,3.76001 -0.83,4.8c0.42,2.5 2.23,3.48 5.43001,2.94l6.12999,-1.03999l1.86,11l-40.89,6.90999l-1.86,-11c0.44,-0.08 1.02,-0.17 1.73,-0.28999c0.8,-0.13 1.74002,-0.25 2.82002,-0.34c2.59,-0.35001 4.64998,-1.94 6.17998,-4.77c0.42001,-0.78 0.85002,-1.83 1.32002,-3.15001c0.46001,-1.31999 0.89998,-2.89999 1.32001,-4.75c1.21999,-4.64 1.70999,-7.7 1.45999,-9.15999c-0.25999,-1.55 -1.19,-2.73001 -2.78999,-3.52c3.48999,-0.94 6.31,-4.53 8.45999,-10.75c1.86,-5.19 2.55,-9.22 2.07001,-12.06c-1.69,-0.78 -3.15001,-1.06 -4.39,-0.85001l-7.73001,1.31l-1.86,-11l65.39,-11.06l1.86,11c-1.25999,0.13 -2.32999,0.26001 -3.21999,0.41c-0.8,0.12999 -1.38,0.23 -1.73001,0.28998c-1.92999,0.51001 -3.51999,1.31001 -4.8,2.41c1.42001,4.11 3.58,7.96001 6.47,11.55c3.83,4.86 7.40001,7.05 10.70001,6.58c-1.04001,1.42 -1.36,3.28999 -0.97,5.62c0.28999,1.73 1.84999,4.74001 4.68002,9.06c2.95996,4.56001 5.09998,6.95001 6.41995,7.17c1.20999,0.15002 3.86005,-0.12 7.94,-0.81l1.86005,11l-50.19005,8.47zm-14,-47.95l-5.34999,18.61l16.38,-2.77l-11.03001,-15.84z" fill="#FFFFFF" id="svg_133"/>
    <path class="st13" d="m350.01001,220.7c-2.16,0.16 -4.60999,-0.66 -7.37,-2.47c-2.66,-1.73 -4.07001,-3.64 -4.22,-5.73999l-0.84,-11.12001c-0.10001,-1.39 -1.11002,-2.67999 -3,-3.84999c-1.89999,-1.17 -3.56,-1.71001 -5,-1.60001l-11.31,0.85001l0.73999,9.81999c0.20001,2.62001 1.13,4.17 2.79001,4.66c0.35999,0.06 2.57999,0.03 6.63,-0.10001l0.84,11.12001l-49.57001,3.73l-0.84003,-11.12c6.47998,-0.22 10.28003,-1.39 11.38998,-3.49002c0.49002,-0.64998 0.55002,-3.42 0.19,-8.29999c-0.31,-4.09999 -0.63,-6.62001 -0.97998,-7.56001c-0.90002,-2.29999 -2.73001,-3.87 -5.5,-4.71999c2.82999,-0.81999 4.47998,-2.84001 4.95999,-6.03001c0.07001,-0.26999 -0.05002,-2.5 -0.37,-6.67998c-0.34,-4.45001 -0.66,-7.01001 -0.99002,-7.69c-0.75,-1.61 -3.23999,-2.26001 -7.45999,-1.94c-0.72,0.05 -1.45999,0.13 -2.22,0.23c-0.76001,0.10001 -1.59,0.23 -2.47998,0.38l-0.84003,-11.12l64.65002,-4.87001c5.20999,-0.39 10.31998,0.40999 15.34998,2.40001c6.61002,2.65999 10.89001,6.76999 12.85001,12.33c0.14001,0.68999 1.16,1.57999 3.05002,2.67c-1.14001,1.67 -2.24002,3.25998 -3.30002,4.78998c-1.06,1.53001 -2.13,2.95001 -3.19998,4.25999c-3.45001,4.47 -7.02002,6.93001 -10.69,7.39c2.63998,0.33 5.17999,1.10001 7.63,2.32001c4.01999,1.89 6.13998,4.19 6.34,6.89l0.66998,8.89999c0.09,1.13 1.14001,1.93001 3.16,2.39c1.38,0.34001 2.47,0.47 3.28,0.41c0.45001,-0.03 0.81,-0.09999 1.07001,-0.20999l0.84,11.12l-26.25,1.95001l0.00003,0zm-15.85001,-53.03c-1.61002,-1.55 -3.44,-2.24001 -5.51001,-2.09l-12.12,0.91l1.23999,16.48999l12.53,-0.94c1.89001,-0.14 3.51001,-1.26999 4.89001,-3.39999c1.22,-1.75999 1.76001,-3.64 1.60999,-5.64999c-0.14999,-1.99001 -1.03,-3.76999 -2.63998,-5.32001z" fill="#FFFFFF" id="svg_134"/>
    <path class="st13" d="m476.79999,191.3c-2.95999,10.87999 -8.25,18.73999 -15.88998,23.61c-7,4.25998 -16.57001,6.3 -28.73001,6.12c0.72,0.00999 0.01999,-0.06999 -2.09,-0.23c-2.12,-0.16 -5.64999,-0.46001 -10.59,-0.88c-6.93002,-0.45 -13.37,-3.39 -19.32001,-8.8c-5.76999,-5.40999 -9.06,-11.48999 -9.86002,-18.23c-0.23999,-2.00999 -1.06998,-4.08 -2.47,-6.19c-0.17999,-0.25999 -0.62,-0.66 -1.32999,-1.2c-0.70999,-0.53 -1.69,-1.16 -2.94,-1.88c3.09,-1.78998 5.34,-4.84999 6.76001,-9.2c1.88998,-6 3.16,-9.42999 3.79999,-10.28999c6.91,-10.47 19.73001,-15.56 38.45999,-15.28c23.68002,0.34999 37.90002,9.73999 42.67001,28.14999c0.25,1.23 1.04001,2.67999 2.37,4.36c1.41,1.86 2.57001,3.10001 3.45999,3.72c-1.11996,1.2 -2.54999,3.27 -4.29999,6.22zm-36.37,-6.90001c3.45999,-2.31 5.22,-5.74002 5.29001,-10.29001c0.12,-7.95999 -4.10001,-12.00999 -12.65002,-12.12999c-8.37,-0.13 -12.62,3.92 -12.73999,12.14998c-0.04001,2.36 0.12,3.94 0.47,4.73001c0.61002,1.58 2.16,3.36 4.64999,5.32001c-1.81,0.67 -3.22998,2.12 -4.25,4.33c-1.03,2.22 -1.54999,4.37 -1.57999,6.47c-0.06,4.03 1.10999,7.29999 3.5,9.83c2.38998,2.53 5.66,3.82999 9.79999,3.89c8.46002,0.12999 12.76001,-4.18002 12.89001,-12.93002c0.08002,-6.03998 -1.72,-9.82999 -5.38,-11.37l0,0.00002z" fill="#FFFFFF" id="svg_135"/>
    <path class="st13" d="m551.53003,185.52l1.14001,-11.63c-0.01001,-0.78999 -0.40002,-1.71001 -1.15002,-2.75c-0.76001,-1.03999 -1.5,-1.60001 -2.20996,-1.67l-3.23004,-0.32001l-1.58002,16.07001c-0.02997,0.35001 0.14001,0.83 0.54004,1.44c0.39001,0.61 0.87,1.23 1.45001,1.86c0.57001,0.62999 1.12,1.20999 1.65997,1.75c0.53003,0.53999 1.01001,0.95999 1.44,1.25998c-2.91998,0.24002 -4.90002,2.02 -5.96002,5.35002c-0.12,0.25 -0.38995,2.56 -0.81,6.90999c-0.44,4.53001 -0.56,7.11 -0.34998,7.75c0.69,2.18001 3.22998,3.48001 7.62,3.91c0.63,0.06 1.25,0.12001 1.88,0.18999c0.63,0.06001 1.29999,0.08 2.02997,0.07002l-1.08997,11.09999l-50.67999,-4.98001l1.09,-11.10001c4.47998,0.44 6.85999,0.63 7.13998,0.57001c3.26001,-0.03 5.12,-1.03 5.59003,-3.01001l0.69,-7.04999c0.40997,-4.18001 0.57001,-6.71001 0.47998,-7.60001c-0.32001,-2.23001 -1.77002,-4.13 -4.33002,-5.7c3.67999,-2.45001 5.57001,-4.24002 5.69,-5.38l1.54004,-15.67c-0.16003,-0.19 -0.78003,-0.34001 -1.86005,-0.45c-3.32001,-0.33 -5.07996,0.56 -5.27997,2.64998l-1.25003,12.67l-20.43002,-2.00998l2.68002,-27.3l80.51999,7.91l-2.66998,27.17l-20.29999,-2.00999l0,0.00002z" fill="#FFFFFF" id="svg_136"/>
    <path class="st13" d="m671.10999,217.50999c-4.71002,10.23999 -11.23999,17.12001 -19.57001,20.65999c-7.60999,3.05 -17.39001,3.48001 -29.34998,1.29001c0.70996,0.13 0.02997,-0.06 -2.02002,-0.57001c-2.06,-0.50999 -5.48999,-1.39 -10.29999,-2.62001c-6.76001,-1.59 -12.63,-5.54999 -17.60004,-11.87999c-4.79999,-6.29999 -7.03998,-12.82999 -6.70996,-19.61c0.09998,-2.01999 -0.38,-4.2 -1.42004,-6.51999c-0.12994,-0.29001 -0.5,-0.76001 -1.12,-1.40001c-0.62,-0.64999 -1.47998,-1.42 -2.58997,-2.34001c3.33997,-1.25 6.07001,-3.89998 8.19,-7.95998c2.85999,-5.60002 4.66998,-8.78001 5.45001,-9.52c8.54999,-9.18001 22.02997,-12.08 40.44995,-8.71001c23.29004,4.26999 35.77002,15.87001 37.42999,34.82001c0.05005,1.25 0.58002,2.81999 1.61005,4.69c1.07996,2.06 2.01996,3.48001 2.78998,4.23999c-1.27997,1.00003 -3.02997,2.81001 -5.23999,5.43001zm-34.72998,-12.81999c3.78998,-1.71001 6.09998,-4.8 6.91998,-9.27c1.42999,-7.83 -2.06,-12.52 -10.46997,-14.06c-8.23999,-1.50999 -13.10004,1.78 -14.58002,9.87c-0.42999,2.32001 -0.53003,3.90001 -0.32001,4.74002c0.33002,1.65999 1.57001,3.67 3.70001,6.01999c-1.90002,0.36 -3.53003,1.54999 -4.91003,3.56999c-1.37994,2.02 -2.25,4.06 -2.62994,6.12c-0.72003,3.96002 -0.12006,7.38 1.82996,10.27c1.94,2.89 4.95001,4.71001 9.02002,5.46001c8.33002,1.51999 13.28003,-2.01999 14.85004,-10.62001c1.08997,-5.93999 -0.05005,-9.96999 -3.41003,-12.09999z" fill="#FFFFFF" id="svg_137"/>
    <path class="st13" d="m743.31,262.14001c-6.66998,1.54999 -13.83002,1.28 -21.47998,-0.79001c-8.69,-2.35999 -16.03003,-6.61 -22.01001,-12.75999c-0.47003,0.69 -0.79999,1.41 -1.01001,2.17001c-0.22998,0.85001 -0.32001,1.67998 -0.26001,2.50998l-19.67999,-5.34001l5.39001,-19.88998l22.28998,6.04001c-0.82001,6.12001 3.67999,10.52 13.5,13.18001c7.65002,2.06999 11.90002,1.54999 12.73999,-1.58c0.91003,-3.37999 -1.44995,-5.82999 -7.09998,-7.36c-4.78003,-1.29999 -7.88,-0.87 -9.31,1.28999c-1.01001,-3.17 -2.57001,-5.5 -4.69,-6.98c-1.40002,-1.00999 -3.65002,-2.03 -6.72998,-3.05c-1.72003,-0.55 -3.14001,-1.08 -4.26001,-1.56c-1.13,-0.49001 -2.02002,-0.91 -2.66998,-1.27c-8.20001,-5.20999 -11.07001,-12.34 -8.62006,-21.37001c2.31,-8.53 8.13,-13.98 17.45001,-16.34999c7.33002,-1.91 15.03003,-1.77 23.12,0.42c8.17004,2.20999 14.80005,6.14 19.90002,11.78c0.52997,-0.58 0.96997,-1.87 1.33002,-3.86l16.82001,4.56l-5.84003,21.53l-18.90002,-5.12c0.80005,-4.68001 0.13,-8.21001 -2.01996,-10.61c-1.87,-2.05 -5.28003,-3.74001 -10.23999,-5.09c-7.13,-1.93001 -11.19,-1.04001 -12.20001,2.67999c-1.10004,4.04999 1.64996,6.98 8.26001,8.77002c2.87,0.78 5.54999,0.50998 8.06,-0.81001c0.54999,3.14 2.94,5.69 7.15997,7.65001c0.90997,0.42999 2.13,0.98999 3.66998,1.67999c1.54004,0.68999 3.38,1.54999 5.53003,2.59001c4.22998,3.31998 7.03998,6.39 8.41998,9.21999c1.35004,3.26999 1.38,7.31001 0.07001,12.12001c-2.25,8.27998 -7.81,13.47997 -16.69,15.59999z" fill="#FFFFFF" id="svg_138"/>
   </g>
  </g>
 </g>

</svg>