<?xml version="1.0" encoding="utf-8"?>
<!-- Generator: Adobe Illustrator 25.2.1, SVG Export Plug-In . SVG Version: 6.00 Build 0)  -->
<svg version="1.1" id="Capa_1" xmlns="http://www.w3.org/2000/svg" xmlns:xlink="http://www.w3.org/1999/xlink" x="0px" y="0px"
	 viewBox="0 0 1564.4 1080" style="enable-background:new 0 0 1564.4 1080;" xml:space="preserve">
     <style type="text/css">
	.st0{fill:#2D2D2D;}
	.st1{fill:url(#SVGID_1_);}
	.st2{fill:url(#SVGID_2_);}
	.st3{fill:url(#SVGID_3_);}
	.st4{fill:url(#SVGID_4_);}
	.st5{fill:url(#SVGID_5_);}
	.st6{fill:url(#SVGID_6_);}
	.st7{clip-path:url(#SVGID_8_);fill:url(#SVGID_9_);}
	.st8{clip-path:url(#SVGID_8_);}
	.st9{fill:url(#SVGID_10_);}
	.st10{fill:url(#SVGID_11_);}
	.st11{fill:url(#SVGID_12_);}
	.st12{fill:url(#SVGID_13_);}
	.st13{fill:#FFFFFF;}
	.st14{fill:none;stroke:url(#SVGID_14_);stroke-miterlimit:10;}
	.st15{fill:url(#SVGID_15_);}
	.st16{fill:url(#SVGID_16_);}
	.st17{fill:#133A50;}
	.st18{fill:url(#SVGID_17_);}
	.st19{fill:url(#SVGID_18_);}
	.st20{fill:url(#SVGID_19_);}
	.st21{fill:url(#SVGID_20_);}
	.st22{fill:url(#SVGID_21_);}
	.st23{fill:url(#SVGID_22_);}
	.st24{fill:url(#SVGID_23_);}
	.st25{fill:url(#SVGID_24_);}
	.st26{fill:url(#SVGID_25_);}
	.st27{fill:url(#SVGID_26_);}
	.st28{fill:url(#SVGID_27_);}
	.st29{fill:url(#SVGID_28_);}
	.st30{fill:url(#SVGID_29_);}
	.st31{fill:url(#SVGID_30_);}
	.st32{fill:url(#SVGID_31_);}
	.st33{fill:url(#SVGID_32_);}
	.st34{fill:url(#SVGID_33_);}
	.st35{fill:url(#SVGID_34_);}
	.st36{fill:url(#SVGID_35_);}
	.st37{fill:url(#SVGID_36_);}
	.st38{fill:url(#SVGID_37_);}
	.st39{fill:url(#SVGID_38_);}
	.st40{fill:url(#SVGID_39_);}
	.st41{fill:url(#SVGID_40_);}
	.st42{fill:url(#SVGID_41_);}
	.st43{fill:url(#SVGID_42_);}
	.st44{fill:url(#SVGID_43_);}
	.st45{fill:url(#SVGID_44_);}
	.st46{fill:url(#SVGID_45_);}
	.st47{fill:url(#SVGID_46_);}
	.st48{fill:url(#SVGID_47_);}
	.st49{fill:url(#SVGID_48_);}
	.st50{fill:url(#SVGID_49_);}
	.st51{fill:url(#SVGID_50_);}
	.st52{fill:url(#SVGID_51_);}
	.st53{fill:url(#SVGID_52_);}
	.st54{fill:url(#SVGID_53_);}
	.st55{fill:url(#SVGID_54_);}
	.st56{fill:url(#SVGID_55_);}
	.st57{fill:url(#SVGID_56_);}
	.st58{fill:url(#SVGID_57_);}
	.st59{fill:url(#SVGID_58_);}
	.st60{fill:url(#SVGID_59_);}
	.st61{fill:url(#SVGID_60_);}
	.st62{fill:url(#SVGID_61_);}
	.st63{fill:url(#SVGID_62_);}
	.st64{fill:url(#SVGID_63_);}
	.st65{fill:url(#SVGID_64_);}
	.st66{fill:url(#SVGID_65_);}
	.st67{fill:url(#SVGID_66_);}
	.st68{fill:url(#SVGID_67_);}
	.st69{fill:url(#SVGID_68_);}
	.st70{fill:url(#SVGID_69_);}
	.st71{fill:url(#SVGID_70_);}
	.st72{fill:url(#SVGID_71_);}
	.st73{fill:url(#SVGID_72_);}
	.st74{fill:url(#SVGID_73_);}
	.st75{fill:url(#SVGID_74_);}
	.st76{fill:url(#SVGID_75_);}
	.st77{fill:url(#SVGID_76_);}
	.st78{fill:url(#SVGID_77_);}
	.st79{fill:url(#SVGID_78_);}
	.st80{fill:url(#SVGID_79_);}
	.st81{fill:url(#SVGID_80_);}
	.st82{fill:url(#SVGID_81_);}
	.st83{fill:url(#SVGID_82_);}
	.st84{fill:url(#SVGID_83_);}
	.st85{fill:url(#SVGID_84_);}
	.st86{fill:url(#SVGID_85_);}
	.st87{fill:url(#SVGID_86_);}
	.st88{fill:#B56537;}
	.st89{fill:#FEC4AD;}
	.st90{fill:url(#SVGID_87_);}
	.st91{fill:url(#SVGID_88_);}
	.st92{fill:url(#SVGID_89_);}
	.st93{fill:url(#SVGID_90_);}
	.st94{fill:url(#SVGID_91_);}
	.st95{fill:url(#SVGID_92_);}
	.st96{fill:#A6AEBA;}
	.st97{fill:#D2DCEB;}
	.st98{fill:url(#SVGID_93_);}
	.st99{fill:url(#SVGID_94_);}
	.st100{fill:url(#SVGID_95_);}
	.st101{fill:url(#SVGID_96_);}
	.st102{fill:url(#SVGID_97_);}
	.st103{fill:#DBA87B;}
	.st104{fill:url(#SVGID_98_);}
	.st105{fill:url(#SVGID_99_);}
	.st106{fill:url(#SVGID_100_);}
	.st107{fill:url(#SVGID_101_);}
	.st108{fill:url(#SVGID_102_);}
	.st109{fill:url(#SVGID_103_);}
	.st110{fill:url(#SVGID_104_);}
	.st111{fill:url(#SVGID_105_);}
	.st112{fill:url(#SVGID_106_);}
	.st113{fill:url(#SVGID_107_);}
	.st114{clip-path:url(#SVGID_109_);fill:url(#SVGID_110_);}
	.st115{clip-path:url(#SVGID_109_);}
	.st116{fill:url(#SVGID_111_);}
	.st117{fill:url(#SVGID_112_);}
	.st118{fill:url(#SVGID_113_);}
	.st119{fill:url(#SVGID_114_);}
	.st120{fill:#231F20;}
	.st121{font-family:'Roboto-Bold';}
	.st122{font-size:72.3995px;}
	.st123{fill:none;stroke:#231F20;stroke-width:1.2994;stroke-linecap:round;stroke-linejoin:round;stroke-miterlimit:10;}
	.st124{fill:url(#SVGID_115_);}
	.st125{fill:url(#SVGID_116_);}
	.st126{fill:url(#SVGID_117_);}
	.st127{fill:url(#SVGID_118_);}
	.st128{clip-path:url(#SVGID_120_);fill:url(#SVGID_121_);}
	.st129{clip-path:url(#SVGID_120_);}
	.st130{fill:url(#SVGID_122_);}
	.st131{fill:url(#SVGID_123_);}
	.st132{fill:url(#SVGID_124_);}
	.st133{fill:none;}
	.st134{fill:#E1A341;}
	.st135{fill:#06993B;}
	.st136{fill:#FCDD01;}
	.st137{fill:#002776;}
	.st138{fill:#FF9D20;}
	.st139{fill:#EF4A21;}
	.st140{fill:#FF470F;}
	.st141{fill:#35312F;}
	.st142{font-family:'Roboto-Black';}
	.st143{font-size:72.8432px;}
	.st144{clip-path:url(#SVGID_126_);fill:url(#SVGID_127_);}
</style>
    <g>
	<rect x="-729.09" y="947.14" class="st133" width="536.79" height="158.64"/>
	<text transform="matrix(1 0 0 1 -729.0887 964.6234)"><tspan x="0" y="0" class="st17" style="font-family:'SofiaPro-Light'; font-size:24.2811px;">Lorem ipsum dolor sit amet, consectetur adipisc</tspan><tspan x="525.01" y="0" class="st17" style="font-family:'SofiaPro-Light'; font-size:24.2811px;">-</tspan><tspan x="0" y="34.69" class="st17" style="font-family:'SofiaPro-Light'; font-size:24.2811px;">ing elit. Pellentesque suscipit tellus vitae purus </tspan><tspan x="0" y="69.38" class="st17" style="font-family:'SofiaPro-Light'; font-size:24.2811px;">dignissim, nec tincidunt neque condimentum. </tspan><tspan x="0" y="104.06" class="st17" style="font-family:'SofiaPro-Light'; font-size:24.2811px;">Nam nec ligula pretium mi interdum hendrerit in </tspan><tspan x="0" y="138.75" class="st17" style="font-family:'SofiaPro-Light'; font-size:24.2811px;">sit amet ligula</tspan></text>
</g>
<path class="st133" d="M1554.4,1078.77H10c-5.52,0-10-4.48-10-10V10C0,4.48,4.48,0,10,0h1544.4c5.52,0,10,4.48,10,10v1058.77
	C1564.4,1074.3,1559.92,1078.77,1554.4,1078.77z"/>
<g>
	<g>
		<g>
			<path class="st134" d="M775.74,169.16c-80.87-25.59-216.73-43.61-316.91-51.95l0.55-6.63c100.54,8.37,236.97,26.48,318.36,52.24
				L775.74,169.16z"/>
		</g>
		<g>
			<path class="st134" d="M58.08,166.71l-1.97-6.36c94.17-29.09,226.44-45.58,318.82-51.31l0.41,6.64
				C283.35,121.39,151.69,137.79,58.08,166.71z"/>
		</g>
	</g>
	<g>
		<path class="st134" d="M333.87,335.58h6.96c1.66,0,3.13,0.32,4.41,0.95c1.28,0.63,2.27,1.53,2.97,2.68
			c0.71,1.15,1.06,2.49,1.06,4.03c0,1.53-0.35,2.87-1.06,4.02c-0.71,1.15-1.7,2.05-2.97,2.68c-1.28,0.63-2.74,0.95-4.41,0.95h-6.96
			V335.58z M340.65,347.98c1.53,0,2.75-0.43,3.66-1.28c0.91-0.85,1.37-2.01,1.37-3.47s-0.46-2.61-1.37-3.47
			c-0.91-0.85-2.13-1.28-3.66-1.28h-3.24v9.49H340.65z"/>
		<path class="st134" d="M367.31,348.05v2.84h-11.86v-15.31h11.57v2.84h-8.05v3.32h7.11v2.76h-7.11v3.54H367.31z"/>
		<path class="st134" d="M375.18,350.66c-1.13-0.33-2.04-0.76-2.72-1.28l1.2-2.67c0.66,0.48,1.44,0.87,2.34,1.16
			c0.9,0.29,1.81,0.44,2.71,0.44c1.01,0,1.75-0.15,2.23-0.45c0.48-0.3,0.72-0.7,0.72-1.19c0-0.36-0.14-0.67-0.43-0.91
			c-0.28-0.24-0.65-0.43-1.09-0.58c-0.44-0.15-1.05-0.31-1.8-0.48c-1.17-0.28-2.12-0.55-2.87-0.83c-0.74-0.28-1.38-0.72-1.91-1.33
			c-0.53-0.61-0.8-1.43-0.8-2.45c0-0.89,0.24-1.69,0.72-2.42c0.48-0.72,1.21-1.29,2.18-1.72c0.97-0.42,2.15-0.63,3.55-0.63
			c0.98,0,1.93,0.12,2.87,0.35c0.93,0.23,1.75,0.57,2.45,1.01l-1.09,2.69c-1.41-0.8-2.83-1.2-4.24-1.2c-0.99,0-1.72,0.16-2.2,0.48
			c-0.47,0.32-0.71,0.74-0.71,1.27c0,0.52,0.27,0.91,0.82,1.17s1.38,0.51,2.5,0.75c1.17,0.28,2.12,0.55,2.87,0.83
			c0.74,0.28,1.38,0.72,1.91,1.31c0.53,0.6,0.8,1.41,0.8,2.43c0,0.87-0.24,1.67-0.73,2.4s-1.22,1.29-2.2,1.72
			c-0.98,0.42-2.17,0.63-3.57,0.63C377.48,351.15,376.31,350.99,375.18,350.66z"/>
		<path class="st134" d="M391.13,335.58h6.96c1.66,0,3.13,0.32,4.41,0.95s2.27,1.53,2.97,2.68c0.71,1.15,1.06,2.49,1.06,4.03
			c0,1.53-0.35,2.87-1.06,4.02c-0.71,1.15-1.7,2.05-2.97,2.68s-2.75,0.95-4.41,0.95h-6.96V335.58z M397.91,347.98
			c1.53,0,2.75-0.43,3.66-1.28c0.91-0.85,1.37-2.01,1.37-3.47s-0.46-2.61-1.37-3.47c-0.91-0.85-2.13-1.28-3.66-1.28h-3.24v9.49
			H397.91z"/>
		<path class="st134" d="M424.58,348.05v2.84h-11.86v-15.31h11.57v2.84h-8.05v3.32h7.11v2.76h-7.11v3.54H424.58z"/>
		<path class="st134" d="M451.11,348v2.89h-11.57v-2.3l5.91-5.58c0.63-0.6,1.05-1.11,1.27-1.54c0.22-0.43,0.33-0.86,0.33-1.28
			c0-0.61-0.21-1.08-0.62-1.41c-0.42-0.33-1.02-0.49-1.83-0.49c-0.67,0-1.28,0.13-1.81,0.38c-0.54,0.26-0.99,0.64-1.36,1.15
			l-2.58-1.66c0.6-0.89,1.42-1.59,2.47-2.09c1.05-0.5,2.25-0.76,3.61-0.76c1.14,0,2.13,0.19,2.99,0.56c0.85,0.37,1.52,0.9,1.99,1.57
			c0.47,0.68,0.71,1.48,0.71,2.4c0,0.83-0.17,1.61-0.52,2.34c-0.35,0.73-1.03,1.56-2.03,2.49l-3.52,3.32H451.11z"/>
		<path class="st134" d="M459.23,350.21c-0.99-0.63-1.77-1.53-2.33-2.72c-0.56-1.19-0.84-2.61-0.84-4.25c0-1.65,0.28-3.07,0.84-4.25
			c0.56-1.19,1.34-2.1,2.33-2.72c0.99-0.63,2.12-0.94,3.39-0.94c1.27,0,2.4,0.31,3.39,0.94c0.99,0.63,1.77,1.53,2.33,2.72
			c0.56,1.19,0.84,2.61,0.84,4.25c0,1.65-0.28,3.07-0.84,4.25c-0.56,1.19-1.34,2.1-2.33,2.72c-0.99,0.63-2.12,0.94-3.39,0.94
			C461.35,351.15,460.22,350.84,459.23,350.21z M464.81,346.95c0.53-0.8,0.8-2.04,0.8-3.72c0-1.68-0.27-2.92-0.8-3.72
			c-0.53-0.8-1.26-1.2-2.2-1.2c-0.92,0-1.64,0.4-2.18,1.2c-0.53,0.8-0.8,2.04-0.8,3.72c0,1.68,0.27,2.92,0.8,3.72
			c0.53,0.8,1.26,1.2,2.18,1.2C463.55,348.16,464.28,347.75,464.81,346.95z"/>
		<path class="st134" d="M485.74,348v2.89h-11.57v-2.3l5.91-5.58c0.63-0.6,1.05-1.11,1.27-1.54c0.22-0.43,0.33-0.86,0.33-1.28
			c0-0.61-0.21-1.08-0.62-1.41c-0.42-0.33-1.02-0.49-1.83-0.49c-0.67,0-1.28,0.13-1.82,0.38c-0.54,0.26-0.99,0.64-1.36,1.15
			l-2.58-1.66c0.6-0.89,1.42-1.59,2.47-2.09c1.05-0.5,2.25-0.76,3.61-0.76c1.14,0,2.13,0.19,2.99,0.56c0.85,0.37,1.52,0.9,1.99,1.57
			c0.47,0.68,0.71,1.48,0.71,2.4c0,0.83-0.18,1.61-0.53,2.34c-0.35,0.73-1.03,1.56-2.03,2.49l-3.52,3.32H485.74z"/>
		<path class="st134" d="M496.63,335.58v15.31h-3.54v-12.47h-3.06v-2.84H496.63z"/>
	</g>
	<g>
		<path class="st134" d="M757.18,304.53c-222.54-73.37-457.79-73.37-680.33,0l-2.08-6.32c110.7-36.5,225.85-55.01,342.25-55.01
			s231.55,18.51,342.25,55.01L757.18,304.53z"/>
	</g>
	<g>
		<g>
			
				<rect x="382.89" y="89.54" transform="matrix(0.9999 0.0142 -0.0142 0.9999 1.6319 -5.9122)" class="st135" width="68.24" height="44.76"/>
		</g>
		<g>
			<polygon class="st136" points="388.5,111.52 417.25,95.06 445.34,112.32 416.77,129.01 			"/>
		</g>
		<g>
			<path class="st137" d="M428.83,112.09c-0.09,6.12-5.45,11-11.98,10.91c-6.53-0.09-11.75-5.13-11.67-11.25
				c0.09-6.12,5.45-11,11.98-10.91C423.7,100.94,428.92,105.97,428.83,112.09z"/>
		</g>
		<g>
			<path class="st13" d="M405.6,108.99c0,0,5.83-1.25,11.5,0.45c5.87,1.73,11.17,5.92,11.17,5.92s0.37-0.89,0.45-1.85
				c-0.1-0.13-5.65-4.56-11.12-5.67c-6.69-1.32-10.3-0.74-11.33-0.58C406,107.58,405.6,108.99,405.6,108.99z"/>
		</g>
	</g>
	<g>
		<path class="st13" d="M331.07,296.59c-1.49,0.41-2.19,1.11-2.09,2.11l1.29,13.18l-10.37,1.01c-0.29-0.83-0.94-1.5-1.94-2
			c-4.05,2.39-7.88,3.76-11.49,4.12c-8.07,0.79-14.27-1.03-18.62-5.47c-1.11-1.11-2.42-3.62-3.91-7.54c-1.4-3.45-3.01-5.7-4.86-6.73
			c2.08-1.47,3.32-3.94,3.72-7.41c1.08-9.55,7.56-14.91,19.45-16.07c5.45-0.53,9.73,0.03,12.85,1.68c0.12-0.38,0.12-0.96-0.01-1.74
			l10.92-1.06l1.53,15.63l-12.88,1.26c-0.69-5.96-3.62-8.69-8.81-8.18c-4.92,0.48-7.14,3.25-6.65,8.3c0.29,2.92,1.3,4.66,3.05,5.22
			c-1.67,1.85-2.37,4.12-2.11,6.83c0.23,2.34,1.02,4.18,2.36,5.53c1.35,1.34,3.2,1.89,5.56,1.67c4.24-0.41,6.19-2.4,5.84-5.96
			c-0.18-1.83-1.47-2.63-3.88-2.4c-0.26,0.03-0.52,0.07-0.78,0.12c-0.26,0.05-0.52,0.12-0.77,0.2l-0.65-6.68l25.61-2.5l0.64,6.6
			L331.07,296.59z"/>
		<path class="st13" d="M386.36,308.71c-1.26,0.05-2.68-0.51-4.25-1.66c-1.52-1.1-2.3-2.28-2.35-3.54l-0.25-6.71
			c-0.03-0.84-0.59-1.64-1.67-2.39c-1.08-0.75-2.04-1.11-2.88-1.08l-6.63,0.25l0.22,5.92c0.06,1.58,0.57,2.53,1.53,2.87
			c0.21,0.04,1.5,0.07,3.87,0.09l0.25,6.71l-29.03,1.1l-0.25-6.71c3.79,0.01,6.03-0.59,6.72-1.83c0.3-0.38,0.4-2.04,0.29-4.99
			c-0.09-2.47-0.23-3.99-0.41-4.57c-0.48-1.4-1.51-2.39-3.11-2.96c1.67-0.43,2.68-1.6,3.03-3.51c0.05-0.16,0.02-1.5-0.07-4.03
			c-0.1-2.68-0.24-4.23-0.41-4.65c-0.41-0.98-1.85-1.43-4.32-1.34c-0.42,0.02-0.85,0.05-1.3,0.09c-0.45,0.04-0.93,0.1-1.45,0.17
			l-0.25-6.71l37.86-1.43c3.05-0.12,6.02,0.48,8.92,1.8c3.81,1.75,6.22,4.32,7.24,7.7c0.07,0.42,0.64,0.98,1.72,1.67
			c-0.7,0.97-1.38,1.91-2.03,2.8c-0.65,0.89-1.3,1.72-1.96,2.48c-2.11,2.61-4.25,4-6.4,4.19c1.54,0.26,3,0.78,4.4,1.57
			c2.31,1.23,3.5,2.66,3.56,4.29l0.2,5.36c0.03,0.69,0.62,1.19,1.8,1.51c0.8,0.23,1.43,0.34,1.91,0.32c0.26-0.01,0.47-0.04,0.63-0.1
			l0.25,6.7L386.36,308.71z M378.23,276.47c-0.9-0.97-1.96-1.43-3.17-1.38l-7.1,0.27l0.38,9.94l7.34-0.28
			c1.1-0.04,2.08-0.68,2.93-1.93c0.75-1.03,1.1-2.15,1.06-3.36C379.61,278.53,379.14,277.44,378.23,276.47z"/>
		<path class="st13" d="M414.24,308.23l0.09-6.71c0.47,0.06,0.92,0.09,1.34,0.09c0.42,0.01,0.82,0.01,1.19,0.02
			c2.47,0.03,3.95-0.56,4.44-1.76c0.16-0.37,0.26-1.94,0.3-4.73c0.03-2.42,0-3.9-0.1-4.42c-0.4-1.43-1.34-2.54-2.8-3.35
			c1.64-0.77,2.63-1.89,2.96-3.36c0.05-0.16,0.1-1.52,0.13-4.1c0.03-2.53-0.03-4-0.18-4.42c-0.46-1.11-1.95-1.68-4.48-1.71
			c-0.37,0-0.76,0-1.19,0.02c-0.42,0.02-0.84,0.06-1.26,0.1l0.09-6.71l31.41,0.4l-0.09,6.71l-5.05-0.06
			c-1.68-0.02-2.54,1.28-2.58,3.91c0,0.26,0.01,0.57,0.03,0.91c0.02,0.34,0.06,0.72,0.1,1.15c0,0.11,0,0.24-0.01,0.39
			c0,0.16-0.03,0.37-0.09,0.63l-0.02,1.18c-0.03,2.37,0.98,4.07,3.01,5.09c-1.64,0.77-2.63,2.02-2.97,3.75
			c-0.05,0.16-0.1,1.53-0.13,4.1c-0.03,2.21-0.02,3.45,0.03,3.71c0.24,1.85,0.99,2.78,2.25,2.79l5.05,0.07l-0.09,6.71L414.24,308.23
			z"/>
		<path class="st13" d="M458.91,308.87l0.4-6.7l5.75,0.34c1.68,0.1,2.61-1.27,2.77-4.11l0.08-1.42l-0.03-0.79
			c0.13-2.15,0.15-3.5,0.08-4.03c-0.21-1.86-1.08-3.15-2.62-3.87c2.18-1.14,3.33-2.78,3.45-4.94c0.01-0.26,0.01-0.64-0.01-1.15
			c-0.02-0.5-0.03-0.88-0.01-1.15l0.06-1.02c0.07-0.26,0.11-0.49,0.12-0.71c0.02-0.26,0.03-0.44,0.03-0.55
			c0.15-2.47-0.78-3.76-2.78-3.88l-5.28-0.31l0.4-6.7l32.62,1.93l-0.4,6.7c-0.52-0.08-0.99-0.14-1.41-0.16
			c-0.42-0.02-0.82-0.05-1.18-0.07c-2.57-0.15-4.15,0.23-4.73,1.14c-0.35,0.56-0.6,2.15-0.76,4.78c-0.12,2-0.11,3.26,0.01,3.8
			c0.33,1.5,1.29,2.71,2.87,3.65c-0.42,0.03-1.14,0.49-2.14,1.38c-0.89,0.79-1.35,1.42-1.38,1.89l-0.62,10.48
			c0.21,0.07,0.49,0.12,0.86,0.17c0.36,0.05,0.84,0.09,1.42,0.12c1.79,0.11,3.38-0.17,4.79-0.82c1.73-0.79,2.65-2,2.75-3.63
			l0.34-5.83l11.98,0.71l-1.03,17.49L458.91,308.87z"/>
		<path class="st13" d="M517.78,312.63l0.75-6.67l5.73,0.64c1.67,0.19,2.67-1.13,2.99-3.95l0.16-1.41l0.01-0.8
			c0.24-2.14,0.34-3.48,0.29-4.02c-0.11-1.86-0.91-3.2-2.41-4c2.23-1.02,3.47-2.6,3.71-4.75c0.03-0.26,0.05-0.64,0.05-1.15
			c0-0.5,0.02-0.88,0.05-1.15l0.11-1.02c0.08-0.25,0.13-0.49,0.16-0.7c0.03-0.26,0.05-0.44,0.06-0.55c0.28-2.46-0.58-3.8-2.57-4.02
			l-5.26-0.59l0.75-6.67l32.48,3.64l-0.75,6.67c-0.52-0.11-0.98-0.19-1.4-0.24c-0.42-0.05-0.81-0.09-1.18-0.13
			c-2.56-0.29-4.16,0.01-4.79,0.89c-0.38,0.54-0.71,2.12-1.01,4.73c-0.22,1.99-0.29,3.25-0.19,3.79c0.25,1.51,1.14,2.78,2.67,3.79
			c-0.43,0.01-1.16,0.43-2.21,1.26c-0.93,0.74-1.42,1.35-1.47,1.82l-1.17,10.43c0.2,0.08,0.49,0.15,0.85,0.21
			c0.36,0.07,0.83,0.13,1.41,0.2c1.78,0.2,3.39,0.01,4.83-0.57c1.77-0.7,2.75-1.86,2.93-3.48l0.65-5.8l11.92,1.34l-1.95,17.41
			L517.78,312.63z"/>
	</g>
	<g>
		<g>
			<g>
				<path class="st13" d="M137.87,497.26c-1.14-0.02-3.2-0.49-5.58-1.65c-5.52-2.7-8.04-7.96-5.07-13.75
					c2.84-5.53,8.73-7.23,14.59-4.37c2.36,1.15,3.62,2.34,4.12,2.97c-0.5,0.53-1,1.07-1.5,1.6c-0.73-0.87-1.91-1.83-3.48-2.6
					c-4.45-2.17-8.73-1.01-11.08,3.64c-2.19,4.33-0.87,8.51,3.88,10.83c1.53,0.75,3.24,1.21,4.47,1.24
					C138.11,495.87,137.99,496.57,137.87,497.26z"/>
			</g>
			<g>
				<path class="st13" d="M166.73,499.92c-2.67,6.29-8.26,7.85-13.32,5.59c-5.24-2.34-7.18-7.73-4.64-13.17
					c2.67-5.71,8.16-7.69,13.27-5.42C167.26,489.24,169.03,494.49,166.73,499.92z M151.47,493.52c-1.77,3.85-1.08,8.36,2.94,10.15
					c4.05,1.8,7.83-0.65,9.61-4.79c1.56-3.63,1.18-8.27-2.95-10.1C156.97,486.94,153.29,489.55,151.47,493.52z"/>
			</g>
			<g>
				<path class="st13" d="M186.1,517.98c-1.12,0.07-3.2-0.22-5.65-1.18c-5.67-2.23-8.56-7.26-6.07-13.27
					c2.38-5.74,8.08-7.93,14.1-5.57c2.42,0.95,3.77,2.03,4.31,2.61c-0.45,0.57-0.9,1.15-1.36,1.72c-0.79-0.81-2.03-1.66-3.65-2.3
					c-4.57-1.79-8.71-0.28-10.68,4.55c-1.84,4.49-0.21,8.54,4.67,10.46c1.57,0.62,3.3,0.94,4.52,0.87
					C186.23,516.58,186.17,517.28,186.1,517.98z"/>
			</g>
			<g>
				<path class="st13" d="M204.31,504.27c-2.25,6.22-4.49,12.45-6.74,18.67c-0.87-0.31-1.74-0.63-2.61-0.95
					c2.27-6.21,4.54-12.43,6.82-18.64C202.62,503.66,203.46,503.97,204.31,504.27z"/>
			</g>
			<g>
				<path class="st13" d="M208.01,526.61c2.14-6.26,4.28-12.52,6.42-18.78c0.93,0.32,1.85,0.63,2.78,0.94
					c1.04,3.88,2.11,7.76,3.23,11.64c0.77,2.7,1.3,5.06,1.65,7.31c0.02,0,0.05-0.01,0.07-0.01c0.56-2.6,1.24-4.92,2.18-7.87
					c0.84-2.64,1.68-5.27,2.52-7.91c0.8,0.26,1.61,0.51,2.41,0.76c-1.98,6.31-3.97,12.62-5.95,18.93c-0.89-0.28-1.78-0.56-2.67-0.85
					c-1.14-3.89-2.25-7.78-3.31-11.67c-0.7-2.56-1.32-5.16-1.63-7.53c-0.03,0-0.07,0-0.1,0c-0.66,2.42-1.36,4.7-2.41,7.83
					c-0.9,2.68-1.81,5.36-2.71,8.03C209.66,527.17,208.83,526.89,208.01,526.61z"/>
			</g>
			<g>
				<path class="st13" d="M238.91,529.83c-1.28,1.79-2.58,3.58-3.87,5.37c-0.91-0.27-1.83-0.54-2.74-0.81
					c4.22-5.64,8.37-11.32,12.45-17.03c1.04,0.3,2.07,0.59,3.11,0.88c0.48,7.01,1.03,14.02,1.66,21.04
					c-0.95-0.26-1.9-0.51-2.85-0.77c-0.18-2.21-0.36-4.42-0.53-6.62C243.73,531.21,241.32,530.53,238.91,529.83z M246.13,529.8
					c-0.15-2.02-0.3-4.04-0.44-6.06c-0.1-1.37-0.07-2.59-0.06-3.78c-0.02-0.01-0.04-0.01-0.06-0.02c-0.62,1.05-1.28,2.12-2,3.17
					c-1.18,1.65-2.37,3.3-3.57,4.95C242.05,528.65,244.09,529.23,246.13,529.8z"/>
			</g>
			<g>
				<path class="st13" d="M277.67,528.08c-2.05-0.47-4.1-0.95-6.15-1.44c0.17-0.71,0.34-1.41,0.51-2.12
					c4.97,1.19,9.94,2.31,14.93,3.38c-0.15,0.71-0.3,1.42-0.46,2.13c-2.07-0.44-4.13-0.89-6.19-1.35
					c-1.29,5.75-2.58,11.49-3.86,17.24c-0.91-0.2-1.81-0.41-2.71-0.61C275.04,539.56,276.35,533.82,277.67,528.08z"/>
			</g>
			<g>
				<path class="st13" d="M295,529.83c1.37,0,3.29,0.23,5.1,0.58c2.8,0.53,4.51,1.36,5.58,2.69c0.87,1.06,1.2,2.49,0.94,4
					c-0.46,2.58-2.48,3.99-4.78,4.28c-0.01,0.03-0.01,0.06-0.02,0.09c1.49,0.82,2.19,2.38,2.32,4.5c0.19,2.85,0.35,4.82,0.65,5.65
					c-0.93-0.17-1.86-0.33-2.8-0.5c-0.24-0.61-0.4-2.38-0.54-4.92c-0.12-2.81-1.03-4.02-3.43-4.57c-0.84-0.16-1.67-0.32-2.51-0.49
					c-0.55,2.81-1.1,5.62-1.65,8.44c-0.9-0.18-1.8-0.35-2.7-0.53C292.44,542.63,293.72,536.23,295,529.83z M295.88,539.22
					c0.91,0.18,1.81,0.35,2.72,0.53c2.84,0.54,4.92-0.61,5.32-2.84c0.46-2.52-1.24-3.97-4.01-4.53c-1.27-0.24-2.19-0.3-2.64-0.27
					C296.81,534.48,296.34,536.85,295.88,539.22z"/>
			</g>
			<g>
				<path class="st13" d="M318.45,547.57c-1.04,1.94-2.1,3.88-3.15,5.82c-0.93-0.15-1.87-0.3-2.8-0.46
					c3.46-6.13,6.84-12.29,10.16-18.47c1.06,0.16,2.12,0.32,3.17,0.48c1.34,6.89,2.76,13.77,4.25,20.66
					c-0.97-0.13-1.94-0.27-2.9-0.41c-0.46-2.17-0.9-4.33-1.35-6.5C323.37,548.33,320.91,547.96,318.45,547.57z M325.56,546.63
					c-0.4-1.98-0.8-3.97-1.18-5.95c-0.27-1.35-0.39-2.56-0.52-3.74c-0.02,0-0.04-0.01-0.06-0.01c-0.48,1.12-1,2.26-1.58,3.39
					c-0.96,1.79-1.93,3.58-2.9,5.36C321.4,546.01,323.48,546.32,325.56,546.63z"/>
			</g>
			<g>
				<path class="st13" d="M341.66,537.36c1.64-0.03,3.57,0.02,5.66,0.26c3.79,0.43,6.4,1.56,8.04,3.35
					c1.67,1.79,2.52,4.18,2.21,7.38c-0.31,3.22-1.62,5.76-3.77,7.38c-2.15,1.65-5.52,2.3-9.62,1.83c-1.94-0.22-3.56-0.51-4.91-0.82
					C340.06,550.28,340.86,543.82,341.66,537.36z M342.22,555.11c0.67,0.2,1.67,0.35,2.73,0.47c5.81,0.66,9.28-2.08,9.81-7.41
					c0.49-4.66-1.95-7.88-7.55-8.51c-1.37-0.16-2.42-0.16-3.14-0.1C343.46,544.74,342.84,549.92,342.22,555.11z"/>
			</g>
			<g>
				<path class="st13" d="M370.48,539.98c-0.51,6.6-1.02,13.19-1.53,19.79c-0.91-0.07-1.82-0.14-2.73-0.22
					c0.54-6.59,1.07-13.19,1.61-19.78C368.72,539.85,369.6,539.92,370.48,539.98z"/>
			</g>
			<g>
				<path class="st13" d="M394.67,560.6c-1.02,0.43-3.05,0.83-5.63,0.71c-5.99-0.28-10.26-4.1-9.84-10.59
					c0.4-6.2,5.02-10.12,11.37-9.83c2.56,0.12,4.15,0.71,4.84,1.08c-0.24,0.69-0.48,1.38-0.72,2.06c-0.99-0.51-2.41-0.92-4.13-1
					c-4.82-0.22-8.2,2.55-8.51,7.76c-0.29,4.85,2.51,8.15,7.65,8.39c1.66,0.08,3.37-0.18,4.48-0.64
					C394.35,559.23,394.51,559.92,394.67,560.6z"/>
			</g>
			<g>
				<path class="st13" d="M407.31,541.75c-0.12,6.61-0.25,13.23-0.37,19.84c-0.91-0.02-1.82-0.04-2.74-0.06
					c0.15-6.61,0.3-13.23,0.46-19.84C405.54,541.72,406.42,541.73,407.31,541.75z"/>
			</g>
			<g>
				<path class="st13" d="M435.7,551.37c0.19,6.83-4.16,10.57-9.58,10.63c-5.62,0.06-9.53-4.03-9.49-10.04
					c0.04-6.3,4.11-10.4,9.58-10.46C431.81,541.44,435.54,545.48,435.7,551.37z M419.51,551.9c-0.01,4.24,2.44,8.05,6.75,8
					c4.34-0.05,6.7-3.85,6.6-8.35c-0.09-3.95-2.32-8.01-6.75-7.96C421.72,543.64,419.51,547.54,419.51,551.9z"/>
			</g>
			<g>
				<path class="st13" d="M445.64,561.17c-0.27-6.61-0.54-13.22-0.8-19.83c0.96-0.04,1.93-0.08,2.89-0.12
					c2.34,3.24,4.72,6.48,7.14,9.69c1.68,2.24,3.02,4.25,4.14,6.22c0.02-0.01,0.04-0.02,0.06-0.03c-0.41-2.63-0.62-5.04-0.81-8.12
					c-0.17-2.76-0.34-5.53-0.51-8.29c0.83-0.05,1.66-0.1,2.5-0.16c0.43,6.6,0.86,13.2,1.29,19.8c-0.92,0.06-1.84,0.12-2.76,0.17
					c-2.44-3.21-4.85-6.44-7.23-9.68c-1.57-2.13-3.06-4.33-4.19-6.43c-0.03,0.01-0.06,0.02-0.09,0.03c0.27,2.49,0.43,4.87,0.58,8.17
					c0.13,2.82,0.25,5.65,0.38,8.47C447.36,561.1,446.5,561.14,445.64,561.17z"/>
			</g>
			<g>
				<path class="st13" d="M475.3,553.03c-0.54,2.14-1.1,4.27-1.65,6.41c-0.94,0.08-1.88,0.16-2.82,0.23
					c1.87-6.78,3.67-13.58,5.4-20.37c1.06-0.1,2.13-0.19,3.19-0.3c2.96,6.36,5.99,12.71,9.09,19.03c-0.97,0.1-1.94,0.2-2.91,0.3
					c-0.96-1.99-1.92-3.99-2.87-5.99C480.25,552.59,477.78,552.82,475.3,553.03z M481.97,550.41c-0.87-1.83-1.73-3.66-2.58-5.49
					c-0.58-1.25-1-2.39-1.41-3.51c-0.02,0-0.04,0-0.06,0.01c-0.19,1.2-0.42,2.43-0.71,3.67c-0.5,1.97-1.01,3.93-1.52,5.9
					C477.78,550.81,479.87,550.61,481.97,550.41z"/>
			</g>
			<g>
				<path class="st13" d="M495.31,537.28c0.88-0.11,1.76-0.21,2.64-0.32c0.73,5.85,1.47,11.71,2.2,17.56
					c2.99-0.37,5.98-0.77,8.97-1.19c0.1,0.71,0.2,1.42,0.3,2.13c-3.9,0.54-7.81,1.05-11.72,1.53
					C496.9,550.41,496.11,543.85,495.31,537.28z"/>
			</g>
			<g>
				<path class="st13" d="M527.83,532.75c1.11-0.43,2.88-0.92,4.72-1.26c2.62-0.48,4.38-0.36,5.84,0.38
					c1.2,0.55,2.06,1.58,2.36,3.11c0.37,1.88-0.62,3.78-2.65,4.94c0,0.02,0.01,0.04,0.01,0.06c2.04,0.1,4.63,1.18,5.19,4.07
					c0.33,1.68-0.13,3.09-1,4.24c-1.21,1.52-3.47,2.55-6.88,3.17c-1.86,0.34-3.32,0.47-4.24,0.51
					C530.07,545.58,528.95,539.16,527.83,532.75z M531.89,540.29c0.8-0.14,1.61-0.29,2.41-0.43c2.81-0.51,4.19-2.22,3.83-4.1
					c-0.44-2.29-2.41-2.83-5.07-2.35c-1.21,0.22-1.89,0.43-2.3,0.59C531.14,536.1,531.51,538.19,531.89,540.29z M533.56,549.65
					c0.54-0.01,1.32-0.12,2.28-0.29c2.79-0.51,5.18-1.95,4.63-4.79c-0.51-2.66-3.13-3.3-6.04-2.77c-0.73,0.13-1.47,0.27-2.2,0.4
					C532.67,544.69,533.11,547.17,533.56,549.65z"/>
			</g>
			<g>
				<path class="st13" d="M550,528.49c1.27-0.54,3.12-1.09,4.92-1.48c2.79-0.61,4.69-0.53,6.2,0.27c1.22,0.63,2.09,1.81,2.44,3.3
					c0.6,2.55-0.71,4.64-2.71,5.82c0.01,0.03,0.01,0.06,0.02,0.09c1.7,0.16,2.96,1.32,3.91,3.22c1.29,2.54,2.22,4.29,2.83,4.94
					c-0.92,0.22-1.85,0.43-2.77,0.64c-0.46-0.47-1.31-2.03-2.44-4.31c-1.22-2.53-2.54-3.29-4.96-2.84c-0.83,0.18-1.67,0.36-2.5,0.54
					c0.6,2.8,1.21,5.6,1.81,8.4c-0.9,0.19-1.79,0.38-2.69,0.57C552.7,541.26,551.35,534.87,550,528.49z M554.52,536.77
					c0.9-0.19,1.8-0.39,2.71-0.59c2.83-0.62,4.29-2.5,3.78-4.71c-0.57-2.5-2.71-3.16-5.48-2.58c-1.26,0.28-2.14,0.59-2.53,0.79
					C553.5,532.05,554.01,534.41,554.52,536.77z"/>
			</g>
			<g>
				<path class="st13" d="M578.61,535.53c-0.2,2.2-0.4,4.39-0.61,6.59c-0.92,0.23-1.84,0.46-2.77,0.69c0.77-7,1.46-14,2.08-20.99
					c1.04-0.27,2.08-0.54,3.12-0.81c3.96,5.8,7.99,11.56,12.1,17.3c-0.95,0.26-1.9,0.52-2.84,0.78c-1.28-1.81-2.55-3.62-3.81-5.44
					C583.45,534.28,581.03,534.91,578.61,535.53z M584.81,531.85c-1.15-1.66-2.3-3.33-3.45-5c-0.78-1.13-1.38-2.2-1.96-3.23
					c-0.02,0.01-0.04,0.01-0.06,0.02c0,1.22-0.03,2.47-0.12,3.74c-0.18,2.02-0.37,4.05-0.56,6.07
					C580.71,532.93,582.76,532.39,584.81,531.85z"/>
			</g>
			<g>
				<path class="st13" d="M600.27,532.87c1.38,0.34,3.28,0.39,5.1-0.15c2.7-0.81,3.87-2.62,3.29-4.53
					c-0.54-1.78-1.93-2.45-4.96-2.62c-3.63-0.11-6.14-1.14-6.91-3.83c-0.86-2.97,1.08-5.92,4.94-7.08c2.03-0.61,3.64-0.62,4.68-0.41
					c-0.03,0.74-0.06,1.48-0.09,2.22c-0.76-0.14-2.26-0.29-4.06,0.25c-2.72,0.82-3.3,2.67-2.92,3.97c0.52,1.78,2,2.3,5.09,2.48
					c3.78,0.21,6,1.21,6.87,4c0.91,2.92-0.63,6.19-5.48,7.64c-1.98,0.59-4.3,0.69-5.59,0.32
					C600.22,534.38,600.24,533.62,600.27,532.87z"/>
			</g>
			<g>
				<path class="st13" d="M618.77,509.6c2.09,6.28,4.17,12.56,6.25,18.83c-0.88,0.29-1.75,0.58-2.63,0.87
					c-2.06-6.29-4.12-12.57-6.17-18.86C617.07,510.17,617.92,509.89,618.77,509.6z"/>
			</g>
			<g>
				<path class="st13" d="M628.91,506.14c0.85-0.3,1.69-0.6,2.54-0.9c1.98,5.56,3.95,11.12,5.93,16.67
					c2.88-1.02,5.74-2.07,8.61-3.13c0.25,0.67,0.5,1.34,0.75,2.01c-3.74,1.39-7.49,2.75-11.25,4.07
					C633.29,518.62,631.1,512.38,628.91,506.14z"/>
			</g>
			<g>
				<path class="st13" d="M662.32,504.74c-2.55,1.04-5.11,2.07-7.67,3.07c0.87,2.22,1.74,4.44,2.62,6.66
					c2.89-1.14,5.77-2.29,8.65-3.47c0.27,0.66,0.54,1.33,0.81,1.99c-3.75,1.53-7.5,3.03-11.27,4.49c-2.39-6.17-4.79-12.33-7.18-18.5
					c3.51-1.36,7-2.76,10.49-4.18c0.27,0.66,0.54,1.33,0.81,1.99c-2.66,1.09-5.33,2.16-8.01,3.21c0.76,1.95,1.53,3.89,2.29,5.84
					c2.55-1,5.1-2.03,7.65-3.06C661.78,503.43,662.05,504.08,662.32,504.74z"/>
			</g>
			<g>
				<path class="st13" d="M675.83,509.18c-2.6-6.08-5.2-12.17-7.8-18.25c0.91-0.39,1.81-0.78,2.72-1.17
					c3.39,2.18,6.8,4.34,10.24,6.47c2.39,1.48,4.39,2.87,6.15,4.3c0.02-0.02,0.03-0.04,0.05-0.05c-1.33-2.31-2.38-4.48-3.65-7.3
					c-1.14-2.52-2.28-5.04-3.42-7.57c0.78-0.35,1.55-0.7,2.33-1.06c2.75,6.02,5.5,12.03,8.25,18.05c-0.86,0.39-1.72,0.78-2.58,1.17
					c-3.47-2.11-6.92-4.25-10.33-6.42c-2.25-1.42-4.45-2.94-6.28-4.49c-0.02,0.02-0.05,0.04-0.07,0.06c1.14,2.24,2.14,4.4,3.45,7.43
					c1.12,2.59,2.24,5.19,3.36,7.78C677.44,508.49,676.63,508.84,675.83,509.18z M671.37,488.17c-0.78-1.62-0.52-3.05,0.73-3.6
					c0.62-0.27,1.18-0.23,1.91-0.2c0.56,0.04,1.12,0.08,1.57-0.12c0.42-0.19,0.6-0.49,0.3-1.39c0.43-0.19,0.87-0.39,1.3-0.58
					c0.79,1.68,0.58,2.87-0.73,3.46c-0.6,0.27-1.2,0.28-1.96,0.26c-0.66-0.03-1.16-0.1-1.56,0.08c-0.45,0.2-0.48,0.76-0.22,1.51
					C672.27,487.78,671.82,487.98,671.37,488.17z"/>
			</g>
			<g>
				<path class="st13" d="M701.25,490.73c0.24,2.2,0.47,4.4,0.69,6.6c-0.87,0.42-1.74,0.84-2.62,1.25
					c-0.62-7.03-1.3-14.04-2.06-21.04c0.98-0.48,1.97-0.96,2.95-1.45c5.09,4.86,10.24,9.68,15.45,14.45
					c-0.89,0.45-1.79,0.91-2.68,1.36c-1.63-1.51-3.25-3.02-4.87-4.54C705.83,488.5,703.54,489.62,701.25,490.73z M706.7,485.82
					c-1.48-1.39-2.95-2.79-4.41-4.19c-1-0.95-1.8-1.87-2.59-2.76c-0.02,0.01-0.04,0.02-0.06,0.03c0.24,1.2,0.46,2.43,0.62,3.7
					c0.22,2.02,0.43,4.05,0.64,6.08C702.84,487.74,704.77,486.79,706.7,485.82z"/>
			</g>
		</g>
		<g>
			<circle class="st134" cx="98.41" cy="468.86" r="9.51"/>
		</g>
		<g>
			<circle class="st134" cx="735.61" cy="466.01" r="9.51"/>
		</g>
		<g>
			<g>
				<g>
					<path class="st138" d="M448.98,396.65c-0.7-1.9-1.62-3.73-2.77-5.4c-0.7-1-1.47-1.95-2.35-2.8c-0.54-0.53-3.03-1.88-3.19-2.45
						c0,0,2.83,9.61-2.39,15.13c-0.5-4.97-1.76-9.86-3.76-14.43c-1.33-3.05-2.99-5.95-4.98-8.62c-0.99-1.33-2.05-2.62-3.21-3.81
						c-0.45-0.46-2.42-1.78-2.47-2.43c1.07,12.9-16.13,15.59-15.95,29.93c-6.11-5.38-3.05-15.77-3.05-15.77
						c-0.17,0.57-2.65,1.92-3.19,2.45c-0.88,0.85-1.65,1.8-2.35,2.8c-1.16,1.67-2.07,3.49-2.77,5.4c-1.48,4.03-1.99,8.41-1.67,12.68
						c0.64,8.38,4.74,16.97,12.49,20.93c12.15,6.2,25.24,3.01,30.79,0c7.65-4.15,11.85-12.54,12.49-20.93
						C450.97,405.06,450.46,400.68,448.98,396.65z"/>
				</g>
				<g>
					<path class="st139" d="M444.25,406.98c-5.33,10.04-11.35,9.74-12.91,9.47c0.63-6.67-1.1-14.78-7.37-22.37
						c-0.33-0.31-12.14,12.73-12.01,22.41c-5.09-2.31-7.62-6.38-8.36-9.51c-3.62,5.92-3.09,13.36,0.49,19.18
						c3.78,6.15,12.04,8.75,18.93,8.43c6.95-0.32,13.71-3.65,18-9.15c3.39-4.35,5.04-9.87,4.09-15.35
						C444.93,409.04,444.68,407.95,444.25,406.98z"/>
				</g>
			</g>
			<g>
				<g>
					<g>
						<path class="st13" d="M485.61,423.94c0.16-0.17,0.14-0.45-0.06-0.6c-0.16-0.12-0.38-0.1-0.53,0.03
							c-8.12,6.94-16,14.12-23.82,21.37c-3.91,3.63-7.79,7.29-11.65,10.97l-2.89,2.76l-1.44,1.38l-0.72,0.69
							c-0.14,0.14-0.2,0.18-0.28,0.26c-0.04,0.04-0.08,0.08-0.12,0.11l-0.13,0.09c-0.67,0.49-1.52,0.74-2.36,0.67
							c-0.84-0.07-1.63-0.44-2.22-1.03c-0.59-0.6-0.96-1.38-1.02-2.22c-0.08-0.84,0.18-1.69,0.67-2.36l0.09-0.13
							c0.03-0.04,0.07-0.08,0.11-0.12c0.08-0.09,0.12-0.15,0.26-0.28l0.69-0.72c0,0,11.5-12.06,15.13-15.97
							c7.26-7.81,14.45-15.7,21.4-23.81c0.15-0.18,0.15-0.44-0.01-0.62c-0.17-0.19-0.47-0.21-0.66-0.03
							c-7.93,7.15-15.63,14.54-23.25,21.99c-3.81,3.73-15.57,15.52-15.57,15.52l-0.7,0.71c-0.1,0.1-0.28,0.29-0.42,0.45
							c-0.07,0.08-0.15,0.16-0.22,0.25l-0.21,0.27c-1.1,1.46-1.64,3.34-1.5,5.16c0.03,0.46,0.11,0.93,0.23,1.38
							c0,0.01,0,0.01,0,0.02c0.05,0.19-0.02,0.4-0.16,0.54l-10.08,10.13l5.09,5.09l10.11-10.11c0.14-0.14,0.35-0.21,0.54-0.16
							c0,0,0,0,0,0c0.46,0.12,0.92,0.2,1.39,0.23c1.82,0.15,3.69-0.4,5.16-1.5l0.27-0.21c0.09-0.07,0.17-0.15,0.25-0.22
							c0.16-0.14,0.35-0.32,0.45-0.42l0.71-0.7l1.42-1.41l2.84-2.82c3.77-3.77,7.53-7.55,11.25-11.36
							C471.09,439.58,478.47,431.88,485.61,423.94z"/>
					</g>
					<g>
						<g>
							<path class="st140" d="M375.41,524.86l-0.23-0.23c-2.1-2.1-2.06-5.53,0.1-7.57l48.88-46.28l5.09,5.09l-46.28,48.88
								C380.93,526.92,377.51,526.96,375.41,524.86z"/>
						</g>
						<g>
							<path class="st13" d="M406.8,490.81c0.6-0.6,1.56-0.6,2.16,0c0.6,0.6,0.6,1.56,0,2.16c-0.6,0.6-1.56,0.6-2.16,0
								C406.2,492.37,406.2,491.4,406.8,490.81z"/>
						</g>
						<g>
							<circle class="st13" cx="396.61" cy="503.16" r="1.53"/>
						</g>
						<g>
							<path class="st13" d="M384.26,513.35c0.6-0.6,1.56-0.6,2.16,0c0.6,0.6,0.6,1.56,0,2.16c-0.6,0.6-1.56,0.6-2.16,0
								C383.66,514.91,383.66,513.94,384.26,513.35z"/>
						</g>
					</g>
					<g>
						
							<rect x="429.21" y="475.89" transform="matrix(0.6881 -0.7256 0.7256 0.6881 -211.4372 459.8598)" class="st141" width="0.06" height="0"/>
					</g>
				</g>
				<g>
					<g>
						<path class="st13" d="M370.62,410.2l-18.46,18.46c-0.82,0.82-0.82,2.14,0,2.96l21.13,21.13c4.41,4.41,11.09,5.65,16.79,3.12
							c0.24-0.11,0.48-0.22,0.72-0.34c0.27-0.14,0.6-0.08,0.81,0.13l23.58,23.58l5.11-5.11l-23.35-23.35
							c-0.23-0.23-0.27-0.58-0.11-0.86c0.33-0.53,0.62-1.09,0.88-1.67l0.05-0.11c2.56-5.72,1.32-12.42-3.11-16.85l-21.09-21.09
							C372.76,409.39,371.44,409.39,370.62,410.2z M380.04,447.62c0.67,0.68,0.68,1.77,0,2.45c-0.68,0.68-1.77,0.68-2.45,0
							l-17.59-17.59c-0.68-0.68-0.68-1.77,0-2.45c0.68-0.68,1.77-0.68,2.45,0L380.04,447.62z M364.01,428.48
							c-0.68-0.68-0.68-1.77,0-2.45c0.68-0.68,1.77-0.68,2.45,0l17.59,17.59c0.68,0.68,0.68,1.77,0,2.45
							c-0.68,0.67-1.77,0.67-2.45,0L364.01,428.48z M388.04,439.63c0.68,0.68,0.68,1.77,0,2.45s-1.77,0.68-2.45,0L368,424.49
							c-0.68-0.68-0.68-1.77,0-2.45c0.68-0.68,1.77-0.68,2.45,0L388.04,439.63z M392.03,435.64c0.68,0.68,0.68,1.77,0,2.45
							c-0.68,0.68-1.77,0.68-2.45,0L372,420.49c-0.68-0.68-0.68-1.77,0-2.45c0.68-0.68,1.77-0.68,2.45,0L392.03,435.64z"/>
					</g>
					<g>
						<g>
							<path class="st140" d="M466.48,525.15l-0.23,0.23c-2.1,2.1-5.53,2.06-7.57-0.1l-46.28-48.88l5.09-5.09l48.88,46.28
								C468.53,519.63,468.58,523.05,466.48,525.15z"/>
						</g>
						<g>
							<path class="st13" d="M432.42,493.76c-0.6-0.6-0.6-1.56,0-2.16c0.6-0.6,1.56-0.6,2.16,0c0.6,0.6,0.6,1.56,0,2.16
								C433.98,494.35,433.02,494.35,432.42,493.76z"/>
						</g>
						<g>
							<path class="st13" d="M443.69,505.03c-0.6-0.6-0.6-1.56,0-2.16c0.6-0.6,1.56-0.6,2.16,0c0.6,0.6,0.6,1.56,0,2.16
								C445.25,505.62,444.29,505.62,443.69,505.03z"/>
						</g>
						<g>
							<path class="st13" d="M454.96,516.3c-0.6-0.6-0.6-1.56,0-2.16c0.6-0.6,1.56-0.6,2.16,0c0.6,0.6,0.6,1.56,0,2.16
								S455.56,516.89,454.96,516.3z"/>
						</g>
					</g>
				</g>
			</g>
			<g>
				<g>
					<path class="st138" d="M345.19,476.77l36.76-5.97c3.5-0.57,6.82,1.64,7.42,4.94c0.6,3.3-1.74,6.43-5.24,7
						c-0.73,0.12-1.48,0.11-2.18,0L345.19,476.77z"/>
				</g>
				<g>
					<path class="st138" d="M496.43,476.76l-36.76,5.97c-3.5,0.57-6.82-1.64-7.42-4.94c-0.6-3.3,1.74-6.43,5.24-7
						c0.73-0.12,1.48-0.11,2.18,0L496.43,476.76z"/>
				</g>
			</g>
		</g>
	</g>
	<g>
		<path class="st13" d="M158.15,222.38c-2.41,1.09-3.41,2.44-2.99,4.04l5.6,21.3l-17.24,4.53c-0.71-1.29-1.98-2.2-3.79-2.74
			c-6.22,5.05-12.33,8.36-18.34,9.94c-13.41,3.52-24.36,2.25-32.85-3.83c-2.17-1.51-5.02-5.27-8.55-11.3
			c-3.25-5.29-6.57-8.52-9.95-9.71c3.13-2.99,4.58-7.39,4.35-13.2c-0.66-15.99,8.89-26.58,28.66-31.78
			c9.06-2.38,16.44-2.64,22.14-0.8c0.11-0.66-0.05-1.61-0.47-2.86l18.16-4.77l6.64,25.26l-21.42,5.63c-2.71-9.6-8.38-13.27-17-11
			c-8.19,2.15-11.21,7.31-9.06,15.47c1.24,4.71,3.4,7.29,6.5,7.74c-2.34,3.49-2.94,7.43-1.79,11.8c1,3.79,2.8,6.59,5.43,8.42
			c2.62,1.83,5.89,2.23,9.81,1.2c7.05-1.85,9.83-5.66,8.31-11.41c-0.78-2.96-3.17-3.92-7.18-2.86c-0.44,0.12-0.87,0.25-1.29,0.41
			c-0.43,0.16-0.84,0.34-1.26,0.53l-2.84-10.79l42.59-11.19l2.8,10.66L158.15,222.38z"/>
		<path class="st13" d="M222.95,235.34l-1.86-11c1.43-0.15,2.57-0.32,3.41-0.51c0.84-0.19,1.47-0.36,1.9-0.52
			c2.22-0.91,3.15-2.44,2.78-4.6c-0.22-1.29-0.98-2.58-2.3-3.87l-26.77,4.53c-0.73,2.17-1.01,3.76-0.83,4.8
			c0.42,2.5,2.23,3.48,5.43,2.94l6.13-1.04l1.86,11l-40.89,6.91l-1.86-11c0.44-0.08,1.02-0.17,1.73-0.29
			c0.8-0.13,1.74-0.25,2.82-0.34c2.59-0.35,4.65-1.94,6.18-4.77c0.42-0.78,0.85-1.83,1.32-3.15c0.46-1.32,0.9-2.9,1.32-4.75
			c1.22-4.64,1.71-7.7,1.46-9.16c-0.26-1.55-1.19-2.73-2.79-3.52c3.49-0.94,6.31-4.53,8.46-10.75c1.86-5.19,2.55-9.22,2.07-12.06
			c-1.69-0.78-3.15-1.06-4.39-0.85l-7.73,1.31l-1.86-11l65.39-11.06l1.86,11c-1.26,0.13-2.33,0.26-3.22,0.41
			c-0.8,0.13-1.38,0.23-1.73,0.29c-1.93,0.51-3.52,1.31-4.8,2.41c1.42,4.11,3.58,7.96,6.47,11.55c3.83,4.86,7.4,7.05,10.7,6.58
			c-1.04,1.42-1.36,3.29-0.97,5.62c0.29,1.73,1.85,4.74,4.68,9.06c2.96,4.56,5.1,6.95,6.42,7.17c1.21,0.15,3.86-0.12,7.94-0.81
			l1.86,11L222.95,235.34z M208.95,187.39L203.6,206l16.38-2.77L208.95,187.39z"/>
		<path class="st13" d="M350.01,220.7c-2.16,0.16-4.61-0.66-7.37-2.47c-2.66-1.73-4.07-3.64-4.22-5.74l-0.84-11.12
			c-0.1-1.39-1.11-2.68-3-3.85c-1.9-1.17-3.56-1.71-5-1.6l-11.31,0.85l0.74,9.82c0.2,2.62,1.13,4.17,2.79,4.66
			c0.36,0.06,2.58,0.03,6.63-0.1l0.84,11.12L279.7,226l-0.84-11.12c6.48-0.22,10.28-1.39,11.39-3.49c0.49-0.65,0.55-3.42,0.19-8.3
			c-0.31-4.1-0.63-6.62-0.98-7.56c-0.9-2.3-2.73-3.87-5.5-4.72c2.83-0.82,4.48-2.84,4.96-6.03c0.07-0.27-0.05-2.5-0.37-6.68
			c-0.34-4.45-0.66-7.01-0.99-7.69c-0.75-1.61-3.24-2.26-7.46-1.94c-0.72,0.05-1.46,0.13-2.22,0.23c-0.76,0.1-1.59,0.23-2.48,0.38
			l-0.84-11.12l64.65-4.87c5.21-0.39,10.32,0.41,15.35,2.4c6.61,2.66,10.89,6.77,12.85,12.33c0.14,0.69,1.16,1.58,3.05,2.67
			c-1.14,1.67-2.24,3.26-3.3,4.79c-1.06,1.53-2.13,2.95-3.2,4.26c-3.45,4.47-7.02,6.93-10.69,7.39c2.64,0.33,5.18,1.1,7.63,2.32
			c4.02,1.89,6.14,4.19,6.34,6.89l0.67,8.9c0.09,1.13,1.14,1.93,3.16,2.39c1.38,0.34,2.47,0.47,3.28,0.41
			c0.45-0.03,0.81-0.1,1.07-0.21l0.84,11.12L350.01,220.7z M334.16,167.67c-1.61-1.55-3.44-2.24-5.51-2.09l-12.12,0.91l1.24,16.49
			l12.53-0.94c1.89-0.14,3.51-1.27,4.89-3.4c1.22-1.76,1.76-3.64,1.61-5.65C336.65,171,335.77,169.22,334.16,167.67z"/>
		<path class="st13" d="M476.8,191.3c-2.96,10.88-8.25,18.74-15.89,23.61c-7,4.26-16.57,6.3-28.73,6.12
			c0.72,0.01,0.02-0.07-2.09-0.23c-2.12-0.16-5.65-0.46-10.59-0.88c-6.93-0.45-13.37-3.39-19.32-8.8
			c-5.77-5.41-9.06-11.49-9.86-18.23c-0.24-2.01-1.07-4.08-2.47-6.19c-0.18-0.26-0.62-0.66-1.33-1.2c-0.71-0.53-1.69-1.16-2.94-1.88
			c3.09-1.79,5.34-4.85,6.76-9.2c1.89-6,3.16-9.43,3.8-10.29c6.91-10.47,19.73-15.56,38.46-15.28c23.68,0.35,37.9,9.74,42.67,28.15
			c0.25,1.23,1.04,2.68,2.37,4.36c1.41,1.86,2.57,3.1,3.46,3.72C479.98,186.28,478.55,188.35,476.8,191.3z M440.43,184.4
			c3.46-2.31,5.22-5.74,5.29-10.29c0.12-7.96-4.1-12.01-12.65-12.13c-8.37-0.13-12.62,3.92-12.74,12.15
			c-0.04,2.36,0.12,3.94,0.47,4.73c0.61,1.58,2.16,3.36,4.65,5.32c-1.81,0.67-3.23,2.12-4.25,4.33c-1.03,2.22-1.55,4.37-1.58,6.47
			c-0.06,4.03,1.11,7.3,3.5,9.83c2.39,2.53,5.66,3.83,9.8,3.89c8.46,0.13,12.76-4.18,12.89-12.93
			C445.89,189.73,444.09,185.94,440.43,184.4z"/>
		<path class="st13" d="M551.53,185.52l1.14-11.63c-0.01-0.79-0.4-1.71-1.15-2.75c-0.76-1.04-1.5-1.6-2.21-1.67l-3.23-0.32
			l-1.58,16.07c-0.03,0.35,0.14,0.83,0.54,1.44c0.39,0.61,0.87,1.23,1.45,1.86c0.57,0.63,1.12,1.21,1.66,1.75
			c0.53,0.54,1.01,0.96,1.44,1.26c-2.92,0.24-4.9,2.02-5.96,5.35c-0.12,0.25-0.39,2.56-0.81,6.91c-0.44,4.53-0.56,7.11-0.35,7.75
			c0.69,2.18,3.23,3.48,7.62,3.91c0.63,0.06,1.25,0.12,1.88,0.19c0.63,0.06,1.3,0.08,2.03,0.07l-1.09,11.1l-50.68-4.98l1.09-11.1
			c4.48,0.44,6.86,0.63,7.14,0.57c3.26-0.03,5.12-1.03,5.59-3.01l0.69-7.05c0.41-4.18,0.57-6.71,0.48-7.6
			c-0.32-2.23-1.77-4.13-4.33-5.7c3.68-2.45,5.57-4.24,5.69-5.38l1.54-15.67c-0.16-0.19-0.78-0.34-1.86-0.45
			c-3.32-0.33-5.08,0.56-5.28,2.65l-1.25,12.67l-20.43-2.01l2.68-27.3l80.52,7.91l-2.67,27.17L551.53,185.52z"/>
		<path class="st13" d="M671.11,217.51c-4.71,10.24-11.24,17.12-19.57,20.66c-7.61,3.05-17.39,3.48-29.35,1.29
			c0.71,0.13,0.03-0.06-2.02-0.57c-2.06-0.51-5.49-1.39-10.3-2.62c-6.76-1.59-12.63-5.55-17.6-11.88c-4.8-6.3-7.04-12.83-6.71-19.61
			c0.1-2.02-0.38-4.2-1.42-6.52c-0.13-0.29-0.5-0.76-1.12-1.4c-0.62-0.65-1.48-1.42-2.59-2.34c3.34-1.25,6.07-3.9,8.19-7.96
			c2.86-5.6,4.67-8.78,5.45-9.52c8.55-9.18,22.03-12.08,40.45-8.71c23.29,4.27,35.77,15.87,37.43,34.82
			c0.05,1.25,0.58,2.82,1.61,4.69c1.08,2.06,2.02,3.48,2.79,4.24C675.07,213.08,673.32,214.89,671.11,217.51z M636.38,204.69
			c3.79-1.71,6.1-4.8,6.92-9.27c1.43-7.83-2.06-12.52-10.47-14.06c-8.24-1.51-13.1,1.78-14.58,9.87c-0.43,2.32-0.53,3.9-0.32,4.74
			c0.33,1.66,1.57,3.67,3.7,6.02c-1.9,0.36-3.53,1.55-4.91,3.57c-1.38,2.02-2.25,4.06-2.63,6.12c-0.72,3.96-0.12,7.38,1.83,10.27
			c1.94,2.89,4.95,4.71,9.02,5.46c8.33,1.52,13.28-2.02,14.85-10.62C640.88,210.85,639.74,206.82,636.38,204.69z"/>
		<path class="st13" d="M743.31,262.14c-6.67,1.55-13.83,1.28-21.48-0.79c-8.69-2.36-16.03-6.61-22.01-12.76
			c-0.47,0.69-0.8,1.41-1.01,2.17c-0.23,0.85-0.32,1.68-0.26,2.51l-19.68-5.34l5.39-19.89l22.29,6.04
			c-0.82,6.12,3.68,10.52,13.5,13.18c7.65,2.07,11.9,1.55,12.74-1.58c0.91-3.38-1.45-5.83-7.1-7.36c-4.78-1.3-7.88-0.87-9.31,1.29
			c-1.01-3.17-2.57-5.5-4.69-6.98c-1.4-1.01-3.65-2.03-6.73-3.05c-1.72-0.55-3.14-1.08-4.26-1.56c-1.13-0.49-2.02-0.91-2.67-1.27
			c-8.2-5.21-11.07-12.34-8.62-21.37c2.31-8.53,8.13-13.98,17.45-16.35c7.33-1.91,15.03-1.77,23.12,0.42
			c8.17,2.21,14.8,6.14,19.9,11.78c0.53-0.58,0.97-1.87,1.33-3.86l16.82,4.56l-5.84,21.53l-18.9-5.12c0.8-4.68,0.13-8.21-2.02-10.61
			c-1.87-2.05-5.28-3.74-10.24-5.09c-7.13-1.93-11.19-1.04-12.2,2.68c-1.1,4.05,1.65,6.98,8.26,8.77c2.87,0.78,5.55,0.51,8.06-0.81
			c0.55,3.14,2.94,5.69,7.16,7.65c0.91,0.43,2.13,0.99,3.67,1.68c1.54,0.69,3.38,1.55,5.53,2.59c4.23,3.32,7.04,6.39,8.42,9.22
			c1.35,3.27,1.38,7.31,0.07,12.12C757.75,254.82,752.19,260.02,743.31,262.14z"/>
	</g>
</g>
</svg>